<svg width="341" height="341" viewBox="0 0 341 341" fill="none" xmlns="http://www.w3.org/2000/svg">
<rect x="5.5" y="6.5" width="330" height="330" rx="31.5" stroke="#2F3438"/>
<g filter="url(#filter0_f_337_69)">
<rect x="5.5" y="5.5" width="330" height="330" rx="31.5" stroke="#2F3438"/>
</g>
<g filter="url(#filter1_d_337_69)">
<rect x="15.5" y="15.5" width="309" height="311" rx="24.5" stroke="#2F3438" stroke-opacity="0.26" shape-rendering="crispEdges"/>
</g>
<path d="M49.2 297.28C47.0133 297.28 45.12 296.8 43.52 295.84C41.92 294.88 40.6933 293.547 39.84 291.84C39.0133 290.107 38.6 288.12 38.6 285.88V268.12H40.52V285.88C40.52 288.787 41.28 291.133 42.8 292.92C44.3467 294.68 46.48 295.56 49.2 295.56C51.92 295.56 54.04 294.68 55.56 292.92C57.1067 291.133 57.88 288.787 57.88 285.88V268.12H59.8V285.88C59.8 288.12 59.3733 290.107 58.52 291.84C57.6933 293.547 56.48 294.88 54.88 295.84C53.28 296.8 51.3867 297.28 49.2 297.28ZM68.3316 268.12V297H66.4116V268.12H68.3316ZM75.635 298.92H73.715L82.155 266.44H84.035L75.635 298.92ZM100.88 297.28C98.693 297.28 96.7997 296.8 95.1997 295.84C93.5997 294.88 92.373 293.547 91.5197 291.84C90.693 290.107 90.2797 288.12 90.2797 285.88V268.12H92.1997V285.88C92.1997 288.787 92.9597 291.133 94.4797 292.92C96.0264 294.68 98.1597 295.56 100.88 295.56C103.6 295.56 105.72 294.68 107.24 292.92C108.786 291.133 109.56 288.787 109.56 285.88V268.12H111.48V285.88C111.48 288.12 111.053 290.107 110.2 291.84C109.373 293.547 108.16 294.88 106.56 295.84C104.96 296.8 103.066 297.28 100.88 297.28ZM128.551 282.52L138.431 297H136.111L127.511 284.32L118.871 297H116.551L126.391 282.52L116.551 268.12H118.871L127.511 280.72L136.151 268.08L138.431 268.12L128.551 282.52Z" fill="#2F3438"/>
<path d="M41.16 48.7V52.2C41.16 53.32 40.9267 54.44 40.46 55.56C40.0067 56.6667 39.4067 57.66 38.66 58.54C37.9267 59.42 37.16 60.0933 36.36 60.56L35.76 59.8C36.5067 59.4 37.24 58.7933 37.96 57.98C38.68 57.1667 39.2667 56.2533 39.72 55.24C40.1733 54.2133 40.4 53.2 40.4 52.2V48.7H41.16ZM41.28 48.7V52.2C41.28 53.16 41.5067 54.1333 41.96 55.12C42.4267 56.0933 43.02 56.9667 43.74 57.74C44.46 58.5133 45.2 59.0933 45.96 59.48L45.36 60.2C44.5467 59.76 43.7667 59.12 43.02 58.28C42.2867 57.44 41.6867 56.4867 41.22 55.42C40.7533 54.3533 40.52 53.28 40.52 52.2V48.7H41.28ZM48.98 47.08V64.34H48.06V47.08H48.98ZM52.06 54.32V55.14H48.76V54.32H52.06ZM58.4005 52.98V56.3H57.4805V52.98H58.4005ZM64.9005 52.98V56.3H64.0005V52.98H64.9005ZM68.9605 55.88V56.64H53.3805V55.88H68.9605ZM61.1805 58.26C63.0205 58.26 64.4538 58.5267 65.4805 59.06C66.5071 59.58 67.0205 60.3133 67.0205 61.26C67.0205 62.2333 66.5071 62.98 65.4805 63.5C64.4538 64.0333 63.0205 64.3 61.1805 64.3C59.3405 64.3 57.9071 64.0333 56.8805 63.5C55.8538 62.98 55.3405 62.2333 55.3405 61.26C55.3405 60.3133 55.8538 59.58 56.8805 59.06C57.9071 58.5267 59.3405 58.26 61.1805 58.26ZM61.1805 59.02C60.1938 59.02 59.3271 59.1133 58.5805 59.3C57.8471 59.4733 57.2738 59.7333 56.8605 60.08C56.4605 60.4133 56.2605 60.8067 56.2605 61.26C56.2605 61.9533 56.7005 62.5067 57.5805 62.92C58.4738 63.32 59.6738 63.52 61.1805 63.52C62.6738 63.52 63.8671 63.32 64.7605 62.92C65.6538 62.5067 66.1005 61.9533 66.1005 61.26C66.1005 60.8067 65.8938 60.4133 65.4805 60.08C65.0805 59.7333 64.5071 59.4733 63.7605 59.3C63.0271 59.1133 62.1671 59.02 61.1805 59.02ZM61.1605 47.46C62.3871 47.46 63.4471 47.5867 64.3405 47.84C65.2338 48.08 65.9138 48.4333 66.3805 48.9C66.8605 49.3533 67.1005 49.9133 67.1005 50.58C67.1005 51.2333 66.8605 51.7933 66.3805 52.26C65.9138 52.7267 65.2338 53.0867 64.3405 53.34C63.4471 53.58 62.3871 53.7 61.1605 53.7C59.9338 53.7 58.8738 53.58 57.9805 53.34C57.1005 53.0867 56.4205 52.7267 55.9405 52.26C55.4605 51.7933 55.2205 51.2333 55.2205 50.58C55.2205 49.9133 55.4605 49.3533 55.9405 48.9C56.4205 48.4333 57.1005 48.08 57.9805 47.84C58.8738 47.5867 59.9338 47.46 61.1605 47.46ZM61.1605 48.2C60.1738 48.2 59.3005 48.3 58.5405 48.5C57.7805 48.6867 57.1938 48.96 56.7805 49.32C56.3671 49.68 56.1605 50.1 56.1605 50.58C56.1605 51.3 56.6138 51.8733 57.5205 52.3C58.4271 52.7267 59.6405 52.94 61.1605 52.94C62.6805 52.94 63.8938 52.7267 64.8005 52.3C65.7071 51.8733 66.1605 51.3 66.1605 50.58C66.1605 50.1 65.9538 49.68 65.5405 49.32C65.1271 48.96 64.5405 48.6867 63.7805 48.5C63.0338 48.3 62.1605 48.2 61.1605 48.2ZM76.1809 49.38V52.8C76.1809 53.8667 75.9343 54.9533 75.4409 56.06C74.9609 57.1533 74.3409 58.1333 73.5809 59C72.8209 59.8667 72.0409 60.52 71.2409 60.96L70.6809 60.22C71.4143 59.8333 72.1476 59.24 72.8809 58.44C73.6276 57.64 74.2343 56.74 74.7009 55.74C75.1809 54.7267 75.4209 53.7467 75.4209 52.8V49.38H76.1809ZM76.3009 49.38V52.8C76.3009 53.7067 76.5209 54.6333 76.9609 55.58C77.4143 56.5133 77.9943 57.36 78.7009 58.12C79.4209 58.8667 80.1609 59.4267 80.9209 59.8L80.3809 60.56C79.5543 60.12 78.7676 59.4933 78.0209 58.68C77.2876 57.8533 76.6876 56.9267 76.2209 55.9C75.7676 54.86 75.5409 53.8267 75.5409 52.8V49.38H76.3009ZM80.4209 48.92V49.72H71.2409V48.92H80.4209ZM83.9409 47.08V64.34H83.0209V47.08H83.9409ZM87.0009 54.34V55.14H83.7209V54.34H87.0009ZM106.191 50.6V51.38H101.151V50.6H106.191ZM106.111 54.18V54.98H100.991V54.18H106.111ZM106.951 47.1V57.72H106.031V47.1H106.951ZM101.771 48.46C101.771 49.8467 101.431 51.1267 100.751 52.3C100.071 53.4733 99.1174 54.4933 97.8908 55.36C96.6774 56.2267 95.2641 56.9133 93.6508 57.42L93.2308 56.66C94.7374 56.1933 96.0574 55.58 97.1908 54.82C98.3241 54.0467 99.2041 53.1467 99.8308 52.12C100.471 51.0933 100.791 49.9867 100.791 48.8V48.46H101.771ZM101.391 48.46V49.26H94.0708V48.46H101.391ZM101.431 57.88C102.577 57.88 103.571 58.0067 104.411 58.26C105.251 58.5133 105.897 58.88 106.351 59.36C106.804 59.84 107.031 60.4133 107.031 61.08C107.031 61.7467 106.804 62.32 106.351 62.8C105.897 63.28 105.251 63.64 104.411 63.88C103.571 64.1333 102.577 64.26 101.431 64.26C100.271 64.26 99.2641 64.1333 98.4108 63.88C97.5708 63.64 96.9241 63.28 96.4708 62.8C96.0308 62.32 95.8108 61.7467 95.8108 61.08C95.8108 60.4133 96.0308 59.84 96.4708 59.36C96.9241 58.88 97.5708 58.5133 98.4108 58.26C99.2641 58.0067 100.271 57.88 101.431 57.88ZM101.431 58.66C100.484 58.66 99.6574 58.76 98.9508 58.96C98.2441 59.16 97.6908 59.44 97.2908 59.8C96.9041 60.16 96.7108 60.5867 96.7108 61.08C96.7108 61.56 96.9041 61.98 97.2908 62.34C97.6908 62.7 98.2441 62.98 98.9508 63.18C99.6574 63.38 100.484 63.48 101.431 63.48C102.364 63.48 103.184 63.38 103.891 63.18C104.597 62.98 105.144 62.7 105.531 62.34C105.917 61.98 106.111 61.56 106.111 61.08C106.111 60.3333 105.684 59.7467 104.831 59.32C103.991 58.88 102.857 58.66 101.431 58.66ZM124.411 47.08V57.54H123.491V47.08H124.411ZM123.991 52.46V53.26H120.131V52.46H123.991ZM124.411 58.6V64.08H113.451V58.6H124.411ZM114.371 59.38V63.28H123.511V59.38H114.371ZM120.331 49.1V49.9H110.431V49.1H120.331ZM115.371 51C116.118 51 116.785 51.1333 117.371 51.4C117.958 51.6533 118.411 52.0133 118.731 52.48C119.065 52.9333 119.231 53.46 119.231 54.06C119.231 54.66 119.065 55.1933 118.731 55.66C118.411 56.1133 117.958 56.4667 117.371 56.72C116.785 56.9733 116.118 57.1 115.371 57.1C114.625 57.1 113.951 56.9733 113.351 56.72C112.765 56.4667 112.305 56.1133 111.971 55.66C111.651 55.1933 111.491 54.66 111.491 54.06C111.491 53.46 111.658 52.9333 111.991 52.48C112.325 52.0133 112.785 51.6533 113.371 51.4C113.958 51.1333 114.625 51 115.371 51ZM115.371 51.76C114.785 51.76 114.265 51.86 113.811 52.06C113.358 52.26 113.005 52.5333 112.751 52.88C112.498 53.2267 112.371 53.62 112.371 54.06C112.371 54.7133 112.651 55.26 113.211 55.7C113.771 56.1267 114.491 56.34 115.371 56.34C116.238 56.34 116.951 56.1267 117.511 55.7C118.071 55.26 118.351 54.7133 118.351 54.06C118.351 53.62 118.225 53.2267 117.971 52.88C117.718 52.5333 117.365 52.26 116.911 52.06C116.458 51.86 115.945 51.76 115.371 51.76ZM115.831 46.9V49.66H114.931V46.9H115.831ZM135.692 47.42C137.572 47.42 139.032 47.68 140.072 48.2C141.112 48.72 141.632 49.4667 141.632 50.44C141.632 51.4 141.112 52.1467 140.072 52.68C139.032 53.2 137.572 53.46 135.692 53.46C133.825 53.46 132.365 53.2 131.312 52.68C130.272 52.1467 129.752 51.4 129.752 50.44C129.752 49.4667 130.272 48.72 131.312 48.2C132.365 47.68 133.825 47.42 135.692 47.42ZM135.692 48.16C134.172 48.16 132.958 48.3667 132.052 48.78C131.145 49.18 130.692 49.7333 130.692 50.44C130.692 51.1467 131.138 51.7 132.032 52.1C132.938 52.5 134.158 52.7 135.692 52.7C137.225 52.7 138.438 52.5 139.332 52.1C140.238 51.7 140.692 51.1467 140.692 50.44C140.692 49.7333 140.238 49.18 139.332 48.78C138.438 48.3667 137.225 48.16 135.692 48.16ZM143.492 54.88V55.66H127.912V54.88H143.492ZM141.412 57.5V60.98H130.832V63.48H129.932V60.24H140.512V58.26H129.872V57.5H141.412ZM141.972 63.3V64.08H129.932V63.3H141.972ZM163.102 47.08V64.34H162.182V47.08H163.102ZM166.162 54.12V54.96H162.862V54.12H166.162ZM151.742 48.62V53.42H157.722V48.62H158.622V60.08H150.842V48.62H151.742ZM151.742 59.28H157.722V54.2H151.742V59.28ZM180.762 47.08V57.8H179.842V47.08H180.762ZM183.482 51.84V52.66H180.502V51.84H183.482ZM175.402 58.3C177.149 58.3 178.509 58.56 179.482 59.08C180.455 59.6 180.942 60.3333 180.942 61.28C180.942 62.24 180.455 62.98 179.482 63.5C178.509 64.02 177.149 64.28 175.402 64.28C173.655 64.28 172.289 64.02 171.302 63.5C170.329 62.98 169.842 62.24 169.842 61.28C169.842 60.3333 170.329 59.6 171.302 59.08C172.289 58.56 173.655 58.3 175.402 58.3ZM175.402 59.06C173.975 59.06 172.842 59.2667 172.002 59.68C171.162 60.08 170.742 60.6133 170.742 61.28C170.742 61.9733 171.162 62.52 172.002 62.92C172.842 63.32 173.975 63.52 175.402 63.52C176.802 63.52 177.922 63.32 178.762 62.92C179.615 62.52 180.042 61.9733 180.042 61.28C180.042 60.6133 179.615 60.08 178.762 59.68C177.922 59.2667 176.802 59.06 175.402 59.06ZM169.642 55.6C171.495 55.6 172.975 55.5667 174.082 55.5C175.189 55.4333 176.302 55.3067 177.422 55.12L177.522 55.9C176.362 56.1 175.229 56.2333 174.122 56.3C173.015 56.3667 171.522 56.4 169.642 56.4H168.422V55.6H169.642ZM176.122 48.38V49.16H169.342V56.1H168.422V48.38H176.122ZM175.862 51.92V52.7H169.002V51.92H175.862ZM192.743 48.34C193.916 48.34 194.969 48.5333 195.903 48.92C196.849 49.2933 197.583 49.8267 198.103 50.52C198.623 51.2133 198.883 52.0133 198.883 52.92C198.883 53.8267 198.623 54.6333 198.103 55.34C197.583 56.0333 196.856 56.5733 195.923 56.96C194.989 57.3333 193.929 57.52 192.743 57.52C191.569 57.52 190.516 57.3333 189.583 56.96C188.663 56.5733 187.936 56.0333 187.403 55.34C186.869 54.6333 186.603 53.8267 186.603 52.92C186.603 52.0133 186.869 51.2133 187.403 50.52C187.936 49.8267 188.663 49.2933 189.583 48.92C190.516 48.5333 191.569 48.34 192.743 48.34ZM192.763 49.08C191.776 49.08 190.876 49.2467 190.063 49.58C189.263 49.9133 188.629 50.3733 188.163 50.96C187.709 51.5333 187.483 52.1867 187.483 52.92C187.483 53.6667 187.709 54.3333 188.163 54.92C188.629 55.4933 189.263 55.9467 190.063 56.28C190.863 56.6 191.756 56.76 192.743 56.76C193.743 56.76 194.643 56.6 195.443 56.28C196.256 55.9467 196.889 55.4933 197.343 54.92C197.809 54.3333 198.043 53.6667 198.043 52.92C198.043 52.1867 197.809 51.5333 197.343 50.96C196.889 50.3733 196.256 49.9133 195.443 49.58C194.629 49.2467 193.736 49.08 192.763 49.08ZM200.623 61.08V61.88H184.963V61.08H200.623ZM218.103 61.24V62.04H202.443V61.24H218.103ZM210.683 57.22V61.58H209.783V57.22H210.683ZM216.023 48.46V53.32H205.423V57.16H204.523V52.54H215.123V49.26H204.463V48.46H216.023ZM216.443 56.74V57.52H204.523V56.74H216.443ZM220.623 65H219.903L220.403 61.9H221.523L220.623 65ZM49.24 76.5V77.3H45V76.5H49.24ZM49.86 72.08V81.42H48.96V72.08H49.86ZM40.06 82.32V84.84H48.96V82.32H49.86V89.08H39.16V82.32H40.06ZM40.06 88.28H48.96V85.62H40.06V88.28ZM41.36 73.46V75.1C41.36 76.0867 41.14 77.02 40.7 77.9C40.2733 78.7667 39.6933 79.5267 38.96 80.18C38.24 80.82 37.44 81.32 36.56 81.68L36.06 80.94C36.86 80.6333 37.6 80.1867 38.28 79.6C38.9733 79.0133 39.5267 78.3267 39.94 77.54C40.3667 76.7533 40.58 75.94 40.58 75.1V73.46H41.36ZM41.48 73.46V75.08C41.48 75.8533 41.68 76.6 42.08 77.32C42.4933 78.04 43.0333 78.68 43.7 79.24C44.3667 79.7867 45.1 80.2067 45.9 80.5L45.38 81.24C44.5267 80.8933 43.7467 80.4133 43.04 79.8C42.3333 79.1733 41.7667 78.4533 41.34 77.64C40.9267 76.8267 40.72 75.9733 40.72 75.08V73.46H41.48ZM45.58 73.3V74.06H36.42V73.3H45.58ZM66.5205 73.16V73.96H55.4405V73.16H66.5205ZM69.0405 80.24V81.04H53.3805V80.24H69.0405ZM66.8605 73.16V74.4C66.8605 75.4933 66.8271 76.5067 66.7605 77.44C66.7071 78.36 66.5538 79.4267 66.3005 80.64L65.4005 80.52C65.6405 79.3333 65.7938 78.2867 65.8605 77.38C65.9271 76.4733 65.9605 75.48 65.9605 74.4V73.16H66.8605ZM67.4205 88.08V88.88H55.5205V88.08H67.4205ZM56.4405 83.28V88.26H55.5205V83.28H56.4405ZM76.2209 73.12V75.04C76.2209 76.0933 76.0076 77.0733 75.5809 77.98C75.1543 78.8867 74.5809 79.6733 73.8609 80.34C73.1409 80.9933 72.3343 81.5067 71.4409 81.88L70.9409 81.12C71.7676 80.8 72.5209 80.34 73.2009 79.74C73.8809 79.14 74.4276 78.44 74.8409 77.64C75.2543 76.8267 75.4609 75.96 75.4609 75.04V73.12H76.2209ZM76.3409 73.12V75.02C76.3409 75.8467 76.5409 76.64 76.9409 77.4C77.3543 78.1467 77.8943 78.8 78.5609 79.36C79.2409 79.92 79.9876 80.3467 80.8009 80.64L80.2409 81.38C79.3743 81.02 78.5876 80.5333 77.8809 79.92C77.1743 79.2933 76.6076 78.56 76.1809 77.72C75.7676 76.88 75.5609 75.98 75.5609 75.02V73.12H76.3409ZM84.8409 72.08V82.36H83.9209V72.08H84.8409ZM79.3209 82.9C81.0676 82.9 82.4343 83.1867 83.4209 83.76C84.4209 84.32 84.9209 85.1067 84.9209 86.12C84.9209 87.12 84.4276 87.8933 83.4409 88.44C82.4543 89 81.0809 89.28 79.3209 89.28C77.5476 89.28 76.1609 89 75.1609 88.44C74.1609 87.8933 73.6609 87.12 73.6609 86.12C73.6609 85.1067 74.1609 84.32 75.1609 83.76C76.1743 83.1867 77.5609 82.9 79.3209 82.9ZM79.3209 83.7C78.3743 83.7 77.5409 83.8 76.8209 84C76.1143 84.1867 75.5676 84.4667 75.1809 84.84C74.7943 85.2 74.6009 85.6267 74.6009 86.12C74.6009 86.6 74.7943 87.02 75.1809 87.38C75.5676 87.74 76.1143 88.0133 76.8209 88.2C77.5409 88.4 78.3743 88.5 79.3209 88.5C80.2543 88.5 81.0743 88.4 81.7809 88.2C82.4876 88.0133 83.0343 87.74 83.4209 87.38C83.8209 87.02 84.0209 86.6 84.0209 86.12C84.0209 85.6267 83.8276 85.2 83.4409 84.84C83.0543 84.4667 82.5009 84.1867 81.7809 84C81.0743 83.8 80.2543 83.7 79.3209 83.7ZM84.2409 76.1V76.92H79.7409V76.1H84.2409ZM102.301 72.08V89.34H101.381V72.08H102.301ZM93.3414 73.5C94.1681 73.5 94.9014 73.7467 95.5414 74.24C96.1947 74.72 96.7014 75.4067 97.0614 76.3C97.4214 77.1933 97.6014 78.2333 97.6014 79.42C97.6014 80.5933 97.4214 81.6267 97.0614 82.52C96.7014 83.4133 96.1947 84.1067 95.5414 84.6C94.9014 85.08 94.1681 85.32 93.3414 85.32C92.5014 85.32 91.7547 85.08 91.1014 84.6C90.4614 84.1067 89.9614 83.4133 89.6014 82.52C89.2414 81.6267 89.0614 80.5933 89.0614 79.42C89.0614 78.2333 89.2414 77.1933 89.6014 76.3C89.9614 75.4067 90.4614 74.72 91.1014 74.24C91.7547 73.7467 92.5014 73.5 93.3414 73.5ZM93.3414 74.32C92.6881 74.32 92.1081 74.54 91.6014 74.98C91.0947 75.4067 90.6947 76.0067 90.4014 76.78C90.1081 77.5533 89.9614 78.4333 89.9614 79.42C89.9614 80.3933 90.1081 81.2733 90.4014 82.06C90.6947 82.8333 91.0947 83.44 91.6014 83.88C92.1081 84.32 92.6881 84.54 93.3414 84.54C93.9947 84.54 94.5747 84.32 95.0814 83.88C95.5881 83.44 95.9881 82.8333 96.2814 82.06C96.5747 81.2733 96.7214 80.3933 96.7214 79.42C96.7214 78.4333 96.5747 77.5533 96.2814 76.78C95.9881 76.0067 95.5881 75.4067 95.0814 74.98C94.5747 74.54 93.9947 74.32 93.3414 74.32ZM115.451 77.98V81.3H114.531V77.98H115.451ZM121.951 77.98V81.3H121.051V77.98H121.951ZM126.011 80.88V81.64H110.431V80.88H126.011ZM118.231 83.26C120.071 83.26 121.505 83.5267 122.531 84.06C123.558 84.58 124.071 85.3133 124.071 86.26C124.071 87.2333 123.558 87.98 122.531 88.5C121.505 89.0333 120.071 89.3 118.231 89.3C116.391 89.3 114.958 89.0333 113.931 88.5C112.905 87.98 112.391 87.2333 112.391 86.26C112.391 85.3133 112.905 84.58 113.931 84.06C114.958 83.5267 116.391 83.26 118.231 83.26ZM118.231 84.02C117.245 84.02 116.378 84.1133 115.631 84.3C114.898 84.4733 114.325 84.7333 113.911 85.08C113.511 85.4133 113.311 85.8067 113.311 86.26C113.311 86.9533 113.751 87.5067 114.631 87.92C115.525 88.32 116.725 88.52 118.231 88.52C119.725 88.52 120.918 88.32 121.811 87.92C122.705 87.5067 123.151 86.9533 123.151 86.26C123.151 85.8067 122.945 85.4133 122.531 85.08C122.131 84.7333 121.558 84.4733 120.811 84.3C120.078 84.1133 119.218 84.02 118.231 84.02ZM118.211 72.46C119.438 72.46 120.498 72.5867 121.391 72.84C122.285 73.08 122.965 73.4333 123.431 73.9C123.911 74.3533 124.151 74.9133 124.151 75.58C124.151 76.2333 123.911 76.7933 123.431 77.26C122.965 77.7267 122.285 78.0867 121.391 78.34C120.498 78.58 119.438 78.7 118.211 78.7C116.985 78.7 115.925 78.58 115.031 78.34C114.151 78.0867 113.471 77.7267 112.991 77.26C112.511 76.7933 112.271 76.2333 112.271 75.58C112.271 74.9133 112.511 74.3533 112.991 73.9C113.471 73.4333 114.151 73.08 115.031 72.84C115.925 72.5867 116.985 72.46 118.211 72.46ZM118.211 73.2C117.225 73.2 116.351 73.3 115.591 73.5C114.831 73.6867 114.245 73.96 113.831 74.32C113.418 74.68 113.211 75.1 113.211 75.58C113.211 76.3 113.665 76.8733 114.571 77.3C115.478 77.7267 116.691 77.94 118.211 77.94C119.731 77.94 120.945 77.7267 121.851 77.3C122.758 76.8733 123.211 76.3 123.211 75.58C123.211 75.1 123.005 74.68 122.591 74.32C122.178 73.96 121.591 73.6867 120.831 73.5C120.085 73.3 119.211 73.2 118.211 73.2ZM141.872 72.08V89.34H140.952V72.08H141.872ZM132.912 73.5C133.738 73.5 134.472 73.7467 135.112 74.24C135.765 74.72 136.272 75.4067 136.632 76.3C136.992 77.1933 137.172 78.2333 137.172 79.42C137.172 80.5933 136.992 81.6267 136.632 82.52C136.272 83.4133 135.765 84.1067 135.112 84.6C134.472 85.08 133.738 85.32 132.912 85.32C132.072 85.32 131.325 85.08 130.672 84.6C130.032 84.1067 129.532 83.4133 129.172 82.52C128.812 81.6267 128.632 80.5933 128.632 79.42C128.632 78.2333 128.812 77.1933 129.172 76.3C129.532 75.4067 130.032 74.72 130.672 74.24C131.325 73.7467 132.072 73.5 132.912 73.5ZM132.912 74.32C132.258 74.32 131.678 74.54 131.172 74.98C130.665 75.4067 130.265 76.0067 129.972 76.78C129.678 77.5533 129.532 78.4333 129.532 79.42C129.532 80.3933 129.678 81.2733 129.972 82.06C130.265 82.8333 130.665 83.44 131.172 83.88C131.678 84.32 132.258 84.54 132.912 84.54C133.565 84.54 134.145 84.32 134.652 83.88C135.158 83.44 135.558 82.8333 135.852 82.06C136.145 81.2733 136.292 80.3933 136.292 79.42C136.292 78.4333 136.145 77.5533 135.852 76.78C135.558 76.0067 135.158 75.4067 134.652 74.98C134.145 74.54 133.565 74.32 132.912 74.32ZM158.652 72.1V85.06H157.732V72.1H158.652ZM161.392 78.06V78.86H158.332V78.06H161.392ZM155.712 74.4V75.2H145.492V74.4H155.712ZM150.572 76.38C151.386 76.38 152.092 76.5133 152.692 76.78C153.306 77.0333 153.779 77.4 154.112 77.88C154.459 78.3467 154.632 78.9 154.632 79.54C154.632 80.1533 154.459 80.7 154.112 81.18C153.779 81.66 153.306 82.0267 152.692 82.28C152.092 82.5333 151.386 82.66 150.572 82.66C149.772 82.66 149.066 82.5333 148.452 82.28C147.839 82.0267 147.366 81.66 147.032 81.18C146.699 80.7 146.532 80.1533 146.532 79.54C146.532 78.9 146.699 78.3467 147.032 77.88C147.366 77.4 147.839 77.0333 148.452 76.78C149.066 76.5133 149.772 76.38 150.572 76.38ZM150.572 77.14C149.639 77.14 148.879 77.3667 148.292 77.82C147.706 78.26 147.412 78.8333 147.412 79.54C147.412 80.22 147.706 80.78 148.292 81.22C148.879 81.66 149.639 81.88 150.572 81.88C151.519 81.88 152.286 81.66 152.872 81.22C153.459 80.78 153.752 80.22 153.752 79.54C153.752 78.8333 153.459 78.26 152.872 77.82C152.286 77.3667 151.519 77.14 150.572 77.14ZM151.052 72.12V74.86H150.132V72.12H151.052ZM159.552 88.08V88.88H148.192V88.08H159.552ZM149.112 83.98V88.4H148.192V83.98H149.112ZM172.162 73.82V77.38C172.162 78.4733 171.982 79.5467 171.622 80.6C171.262 81.6533 170.762 82.6067 170.122 83.46C169.482 84.3 168.775 84.9533 168.002 85.42L167.362 84.72C168.122 84.2933 168.809 83.6933 169.422 82.92C170.035 82.1467 170.522 81.2733 170.882 80.3C171.242 79.3267 171.422 78.3533 171.422 77.38V73.82H172.162ZM172.302 73.82V77.34C172.302 78.2467 172.475 79.16 172.822 80.08C173.169 81 173.642 81.8333 174.242 82.58C174.842 83.3267 175.509 83.9 176.242 84.3L175.622 85.02C174.862 84.5667 174.169 83.9333 173.542 83.12C172.915 82.3067 172.422 81.4 172.062 80.4C171.715 79.3867 171.542 78.3667 171.542 77.34V73.82H172.302ZM182.022 72.08V89.34H181.122V72.08H182.022ZM181.522 79.18V79.98H177.882V79.18H181.522ZM178.162 72.54V88.4H177.262V72.54H178.162ZM200.623 86.24V87.04H184.963V86.24H200.623ZM193.203 82.22V86.58H192.303V82.22H193.203ZM198.543 73.46V78.32H187.943V82.16H187.043V77.54H197.643V74.26H186.983V73.46H198.543ZM198.963 81.74V82.52H187.043V81.74H198.963ZM218.083 81.1V81.9H202.443V81.1H218.083ZM210.843 81.58V85.78H209.903V81.58H210.843ZM216.343 88.06V88.9H204.563V88.06H216.343ZM205.463 83.94V88.34H204.563V83.94H205.463ZM210.223 72.58C211.423 72.58 212.47 72.72 213.363 73C214.27 73.28 214.963 73.68 215.443 74.2C215.923 74.7067 216.163 75.3 216.163 75.98C216.163 76.6733 215.923 77.28 215.443 77.8C214.963 78.3067 214.27 78.6933 213.363 78.96C212.47 79.2267 211.423 79.36 210.223 79.36C209.036 79.36 207.996 79.2267 207.103 78.96C206.21 78.68 205.516 78.2867 205.023 77.78C204.543 77.2733 204.303 76.6733 204.303 75.98C204.303 75.3 204.543 74.7067 205.023 74.2C205.516 73.68 206.21 73.28 207.103 73C207.996 72.72 209.036 72.58 210.223 72.58ZM210.243 73.4C209.256 73.4 208.383 73.5133 207.623 73.74C206.876 73.9533 206.296 74.2533 205.883 74.64C205.47 75.0267 205.263 75.4733 205.263 75.98C205.263 76.5 205.47 76.96 205.883 77.36C206.296 77.7467 206.876 78.0467 207.623 78.26C208.383 78.46 209.25 78.56 210.223 78.56C211.21 78.56 212.076 78.46 212.823 78.26C213.57 78.0467 214.15 77.7467 214.563 77.36C214.99 76.96 215.203 76.5 215.203 75.98C215.203 75.4733 214.99 75.0267 214.563 74.64C214.15 74.2533 213.57 73.9533 212.823 73.74C212.076 73.5133 211.216 73.4 210.243 73.4ZM228.913 87.16C230.113 87.16 231.179 86.8933 232.113 86.36C233.059 85.8133 233.793 85.06 234.313 84.1C234.846 83.1267 235.113 82.0267 235.113 80.8C235.113 79.56 234.846 78.4533 234.313 77.48C233.793 76.5067 233.059 75.7533 232.113 75.22C231.179 74.6733 230.113 74.4 228.913 74.4L226.373 74.42V87.14L228.913 87.16ZM228.873 73.56C230.259 73.56 231.499 73.8667 232.593 74.48C233.686 75.0933 234.539 75.9533 235.153 77.06C235.766 78.1533 236.073 79.4 236.073 80.8C236.073 82.1867 235.766 83.4267 235.153 84.52C234.539 85.6133 233.686 86.4667 232.593 87.08C231.499 87.6933 230.259 88 228.873 88H225.413V73.56H228.873ZM242.315 88.04C241.488 88.04 240.748 87.8467 240.095 87.46C239.455 87.06 238.948 86.5133 238.575 85.82C238.215 85.1133 238.035 84.3133 238.035 83.42C238.035 82.5267 238.215 81.7267 238.575 81.02C238.948 80.3133 239.455 79.76 240.095 79.36C240.748 78.96 241.488 78.76 242.315 78.76C243.155 78.76 243.842 78.94 244.375 79.3C244.908 79.6467 245.248 79.9467 245.395 80.2C245.555 80.44 245.742 80.7933 245.955 81.26C246.142 81.7 246.255 82.14 246.295 82.58C246.348 83.02 246.368 83.3933 246.355 83.7V83.8H239.015C239.042 84.4533 239.202 85.04 239.495 85.56C239.788 86.0667 240.175 86.4667 240.655 86.76C241.148 87.04 241.702 87.18 242.315 87.18C242.982 87.18 243.522 87.0667 243.935 86.84C244.348 86.6133 244.615 86.42 244.735 86.26C244.855 86.1 245.002 85.86 245.175 85.54L245.955 85.96C245.702 86.5333 245.268 87.0267 244.655 87.44C244.055 87.84 243.275 88.04 242.315 88.04ZM245.395 82.92C245.368 82.3467 245.235 81.8067 244.995 81.3C244.755 80.78 244.408 80.3667 243.955 80.06C243.502 79.7533 242.955 79.6067 242.315 79.62C241.382 79.62 240.608 79.9267 239.995 80.54C239.395 81.1533 239.068 81.9467 239.015 82.92H245.395ZM249.128 85.54C249.381 86.0733 249.755 86.4867 250.248 86.78C250.755 87.0733 251.228 87.22 251.668 87.22C252.321 87.22 252.848 87.06 253.248 86.74C253.661 86.4067 253.868 86 253.868 85.52C253.868 85.2 253.761 84.94 253.548 84.74C253.335 84.5267 253.081 84.36 252.788 84.24C252.508 84.1067 252.088 83.94 251.528 83.74C250.888 83.5133 250.388 83.3133 250.028 83.14C249.668 82.9667 249.348 82.72 249.068 82.4C248.788 82.08 248.648 81.6667 248.648 81.16C248.648 80.7067 248.781 80.3 249.048 79.94C249.315 79.5667 249.681 79.2733 250.148 79.06C250.615 78.8467 251.135 78.74 251.708 78.74C252.068 78.74 252.455 78.8133 252.868 78.96C253.295 79.1067 253.675 79.3333 254.008 79.64C254.355 79.9333 254.588 80.2867 254.708 80.7L253.808 81C253.688 80.52 253.408 80.1667 252.968 79.94C252.541 79.7133 252.115 79.6 251.688 79.6C251.101 79.6 250.608 79.7533 250.208 80.06C249.808 80.3533 249.608 80.7267 249.608 81.18C249.608 81.4867 249.708 81.7467 249.908 81.96C250.121 82.1733 250.361 82.34 250.628 82.46C250.895 82.5667 251.328 82.7267 251.928 82.94C252.568 83.1667 253.068 83.3733 253.428 83.56C253.801 83.7333 254.128 83.98 254.408 84.3C254.688 84.62 254.828 85.0333 254.828 85.54C254.828 86.02 254.695 86.4533 254.428 86.84C254.161 87.2267 253.781 87.5333 253.288 87.76C252.808 87.9733 252.268 88.08 251.668 88.08C251.268 88.08 250.848 88 250.408 87.84C249.968 87.68 249.561 87.4467 249.188 87.14C248.828 86.82 248.535 86.4467 248.308 86.02L249.128 85.54ZM258.126 78.78V88H257.166V78.78H258.126ZM257.666 74.68C257.879 74.68 258.046 74.7467 258.166 74.88C258.299 75 258.366 75.1667 258.366 75.38C258.366 75.5933 258.299 75.7667 258.166 75.9C258.046 76.0333 257.879 76.1 257.666 76.1C257.453 76.1 257.279 76.0333 257.146 75.9C257.013 75.7667 256.946 75.5933 256.946 75.38C256.946 75.1667 257.013 75 257.146 74.88C257.279 74.7467 257.453 74.68 257.666 74.68ZM264.97 87.24C265.583 87.24 266.143 87.0733 266.65 86.74C267.17 86.3933 267.577 85.9267 267.87 85.34C268.177 84.7533 268.33 84.12 268.33 83.44C268.33 82.7733 268.177 82.1533 267.87 81.58C267.577 81.0067 267.17 80.5467 266.65 80.2C266.143 79.8533 265.583 79.68 264.97 79.68C264.343 79.68 263.783 79.84 263.29 80.16C262.797 80.48 262.41 80.9267 262.13 81.5C261.863 82.0733 261.73 82.72 261.73 83.44C261.73 84.1733 261.863 84.8267 262.13 85.4C262.41 85.9733 262.797 86.4267 263.29 86.76C263.783 87.08 264.343 87.24 264.97 87.24ZM269.27 87.44C269.27 88.3467 269.097 89.16 268.75 89.88C268.403 90.6133 267.91 91.18 267.27 91.58C266.63 91.9933 265.89 92.2 265.05 92.2C264.29 92.2 263.617 92.0533 263.03 91.76C262.457 91.48 261.937 91.0133 261.47 90.36L262.25 89.8C262.61 90.3467 263.017 90.7333 263.47 90.96C263.923 91.2 264.45 91.32 265.05 91.32C266.037 91.32 266.823 90.9467 267.41 90.2C268.01 89.4667 268.31 88.52 268.31 87.36V85.62L268.41 85.64C268.197 86.3467 267.763 86.9333 267.11 87.4C266.47 87.8667 265.75 88.1 264.95 88.1C264.137 88.1 263.41 87.9 262.77 87.5C262.13 87.1 261.63 86.5467 261.27 85.84C260.923 85.1333 260.75 84.3333 260.75 83.44C260.75 82.5467 260.923 81.7533 261.27 81.06C261.63 80.3667 262.13 79.82 262.77 79.42C263.41 79.02 264.137 78.82 264.95 78.82C265.683 78.82 266.377 79.0467 267.03 79.5C267.697 79.94 268.163 80.4933 268.43 81.16L268.31 81.18V78.78H269.27V87.44ZM278.485 82.36C278.485 81.52 278.258 80.86 277.805 80.38C277.365 79.9 276.771 79.66 276.025 79.66C275.478 79.66 274.985 79.78 274.545 80.02C274.105 80.2467 273.765 80.5533 273.525 80.94C273.285 81.3267 273.165 81.7467 273.165 82.2V88H272.185V78.78H273.165V80.4L273.065 80.38C273.265 79.9133 273.638 79.5333 274.185 79.24C274.745 78.9333 275.358 78.78 276.025 78.78C276.691 78.78 277.285 78.9267 277.805 79.22C278.325 79.5133 278.731 79.9133 279.025 80.42C279.318 80.9267 279.465 81.5067 279.465 82.16V88H278.485V82.36Z" fill="#2F3438"/>
<defs>
<filter id="filter0_f_337_69" x="0.3" y="0.3" width="340.4" height="340.4" filterUnits="userSpaceOnUse" color-interpolation-filters="sRGB">
<feFlood flood-opacity="0" result="BackgroundImageFix"/>
<feBlend mode="normal" in="SourceGraphic" in2="BackgroundImageFix" result="shape"/>
<feGaussianBlur stdDeviation="2.35" result="effect1_foregroundBlur_337_69"/>
</filter>
<filter id="filter1_d_337_69" x="11" y="15" width="318" height="320" filterUnits="userSpaceOnUse" color-interpolation-filters="sRGB">
<feFlood flood-opacity="0" result="BackgroundImageFix"/>
<feColorMatrix in="SourceAlpha" type="matrix" values="0 0 0 0 0 0 0 0 0 0 0 0 0 0 0 0 0 0 127 0" result="hardAlpha"/>
<feOffset dy="4"/>
<feGaussianBlur stdDeviation="2"/>
<feComposite in2="hardAlpha" operator="out"/>
<feColorMatrix type="matrix" values="0 0 0 0 0 0 0 0 0 0 0 0 0 0 0 0 0 0 0.25 0"/>
<feBlend mode="normal" in2="BackgroundImageFix" result="effect1_dropShadow_337_69"/>
<feBlend mode="normal" in="SourceGraphic" in2="effect1_dropShadow_337_69" result="shape"/>
</filter>
</defs>
</svg>
