<svg width="341" height="341" viewBox="0 0 341 341" fill="none" xmlns="http://www.w3.org/2000/svg">
<rect x="5.5" y="5.5" width="330" height="330" rx="31.5" stroke="#2F3438"/>
<g filter="url(#filter0_f_306_144)">
<rect x="5.5" y="5.5" width="330" height="330" rx="31.5" stroke="#2F3438"/>
</g>
<g filter="url(#filter1_d_306_144)">
<rect x="15.5" y="15.5" width="309" height="311" rx="24.5" stroke="#2F3438" stroke-opacity="0.26" shape-rendering="crispEdges"/>
</g>
<path d="M62.16 297H60.08L56.76 288.24H43.32L39.92 297H37.84L49.04 268.12H51.04L62.16 297ZM56.08 286.56L50.04 270.8L43.96 286.56H56.08ZM68.4384 290.04C68.4384 291.64 68.8918 292.947 69.7984 293.96C70.7051 294.973 71.8918 295.48 73.3584 295.48C74.4251 295.48 75.3851 295.24 76.2384 294.76C77.1184 294.28 77.7984 293.653 78.2784 292.88C78.7584 292.08 78.9984 291.253 78.9984 290.4V278.56H80.9584V297H78.9984V293.68L79.1984 293.72C78.7718 294.76 78.0118 295.613 76.9184 296.28C75.8251 296.92 74.6384 297.24 73.3584 297.24C72.0518 297.24 70.8784 296.947 69.8384 296.36C68.7984 295.747 67.9718 294.92 67.3584 293.88C66.7718 292.813 66.4784 291.627 66.4784 290.32V278.56H68.4384V290.04ZM88.8728 272.48H90.7928V297H88.8728V272.48ZM85.3128 278.56H95.3528V280.28H85.3128V278.56ZM106.548 295.44C107.881 295.44 109.068 295.12 110.108 294.48C111.148 293.813 111.961 292.907 112.548 291.76C113.134 290.613 113.428 289.307 113.428 287.84C113.428 286.373 113.134 285.067 112.548 283.92C111.961 282.773 111.148 281.88 110.108 281.24C109.068 280.573 107.881 280.24 106.548 280.24C105.241 280.24 104.068 280.573 103.028 281.24C102.014 281.88 101.214 282.773 100.628 283.92C100.068 285.067 99.7878 286.373 99.7878 287.84C99.7878 289.307 100.068 290.613 100.628 291.76C101.214 292.907 102.014 293.813 103.028 294.48C104.068 295.12 105.241 295.44 106.548 295.44ZM106.548 278.52C108.254 278.52 109.774 278.92 111.108 279.72C112.441 280.52 113.481 281.627 114.228 283.04C114.974 284.453 115.348 286.053 115.348 287.84C115.348 289.627 114.974 291.227 114.228 292.64C113.481 294.053 112.441 295.16 111.108 295.96C109.774 296.76 108.254 297.16 106.548 297.16C104.868 297.16 103.361 296.76 102.028 295.96C100.721 295.16 99.6945 294.053 98.9478 292.64C98.2011 291.227 97.8278 289.627 97.8278 287.84C97.8278 286.053 98.2011 284.453 98.9478 283.04C99.6945 281.627 100.721 280.52 102.028 279.72C103.361 278.92 104.868 278.52 106.548 278.52ZM131.714 290.32C132.567 291.893 133.634 293.173 134.914 294.16C136.194 295.12 137.594 295.6 139.114 295.6C141.221 295.627 142.927 295.093 144.234 294C145.567 292.907 146.234 291.453 146.234 289.64C146.234 288.467 145.927 287.493 145.314 286.72C144.727 285.92 143.981 285.293 143.074 284.84C142.167 284.36 140.954 283.84 139.434 283.28C137.674 282.613 136.261 281.987 135.194 281.4C134.127 280.813 133.221 280 132.474 278.96C131.727 277.893 131.354 276.533 131.354 274.88C131.354 273.467 131.714 272.227 132.434 271.16C133.181 270.093 134.194 269.267 135.474 268.68C136.754 268.093 138.167 267.8 139.714 267.8C140.887 267.8 142.007 268.04 143.074 268.52C144.167 269 145.101 269.667 145.874 270.52C146.674 271.373 147.274 272.387 147.674 273.56L145.874 274.2C145.447 272.813 144.661 271.693 143.514 270.84C142.367 269.96 141.101 269.52 139.714 269.52C138.487 269.493 137.381 269.707 136.394 270.16C135.434 270.613 134.674 271.253 134.114 272.08C133.554 272.88 133.274 273.813 133.274 274.88C133.274 276.213 133.594 277.307 134.234 278.16C134.874 278.987 135.661 279.653 136.594 280.16C137.527 280.64 138.794 281.173 140.394 281.76C142.101 282.4 143.461 283 144.474 283.56C145.514 284.093 146.381 284.867 147.074 285.88C147.794 286.867 148.154 288.12 148.154 289.64C148.154 291.16 147.767 292.507 146.994 293.68C146.221 294.827 145.141 295.72 143.754 296.36C142.394 297 140.847 297.32 139.114 297.32C137.274 297.32 135.567 296.773 133.994 295.68C132.447 294.587 131.141 293.107 130.074 291.24L131.714 290.32ZM161.465 297.2C159.812 297.2 158.345 296.813 157.065 296.04C155.785 295.24 154.772 294.133 154.025 292.72C153.305 291.307 152.945 289.707 152.945 287.92C152.945 286.133 153.305 284.533 154.025 283.12C154.772 281.68 155.785 280.573 157.065 279.8C158.345 279 159.812 278.6 161.465 278.6C162.958 278.6 164.305 279.013 165.505 279.84C166.732 280.667 167.665 281.787 168.305 283.2L168.105 283.24V278.56H170.025V297H168.105V292.52L168.305 292.6C167.932 293.4 167.412 294.16 166.745 294.88C166.078 295.573 165.278 296.133 164.345 296.56C163.438 296.987 162.478 297.2 161.465 297.2ZM161.465 295.44C162.638 295.44 163.732 295.12 164.745 294.48C165.758 293.84 166.572 292.947 167.185 291.8C167.798 290.627 168.105 289.333 168.105 287.92C168.105 286.507 167.798 285.213 167.185 284.04C166.572 282.867 165.758 281.96 164.745 281.32C163.732 280.68 162.638 280.36 161.465 280.36C160.212 280.36 159.078 280.68 158.065 281.32C157.078 281.96 156.305 282.853 155.745 284C155.185 285.147 154.905 286.453 154.905 287.92C154.905 289.36 155.185 290.667 155.745 291.84C156.305 292.987 157.078 293.88 158.065 294.52C159.078 295.133 160.212 295.44 161.465 295.44ZM183.864 297H181.984L174.264 278.56H176.344L182.944 294.56L189.264 278.56H191.384L183.864 297ZM201.778 297.08C200.125 297.08 198.645 296.693 197.338 295.92C196.058 295.12 195.045 294.027 194.298 292.64C193.578 291.227 193.218 289.627 193.218 287.84C193.218 286.053 193.578 284.453 194.298 283.04C195.045 281.627 196.058 280.52 197.338 279.72C198.645 278.92 200.125 278.52 201.778 278.52C203.458 278.52 204.832 278.88 205.898 279.6C206.965 280.293 207.645 280.893 207.938 281.4C208.258 281.88 208.632 282.587 209.058 283.52C209.432 284.4 209.658 285.28 209.738 286.16C209.845 287.04 209.885 287.787 209.858 288.4V288.6H195.178C195.232 289.907 195.552 291.08 196.138 292.12C196.725 293.133 197.498 293.933 198.458 294.52C199.445 295.08 200.552 295.36 201.778 295.36C203.112 295.36 204.192 295.133 205.018 294.68C205.845 294.227 206.378 293.84 206.618 293.52C206.858 293.2 207.152 292.72 207.498 292.08L209.058 292.92C208.552 294.067 207.685 295.053 206.458 295.88C205.258 296.68 203.698 297.08 201.778 297.08ZM207.938 286.84C207.885 285.693 207.618 284.613 207.138 283.6C206.658 282.56 205.965 281.733 205.058 281.12C204.152 280.507 203.058 280.213 201.778 280.24C199.912 280.24 198.365 280.853 197.138 282.08C195.938 283.307 195.285 284.893 195.178 286.84H207.938Z" fill="#2F3438"/>
<path d="M41.22 48.86V50.48C41.22 51.48 41.0067 52.4133 40.58 53.28C40.1667 54.1467 39.6 54.9 38.88 55.54C38.16 56.18 37.3667 56.6667 36.5 57L35.96 56.28C36.7867 55.9733 37.54 55.5333 38.22 54.96C38.9 54.3867 39.4467 53.7133 39.86 52.94C40.2733 52.1667 40.48 51.3467 40.48 50.48V48.86H41.22ZM41.36 48.86V50.46C41.36 51.26 41.5533 52.0267 41.94 52.76C42.34 53.48 42.8667 54.1133 43.52 54.66C44.1867 55.1933 44.92 55.6067 45.72 55.9L45.24 56.66C44.3733 56.3267 43.5867 55.8533 42.88 55.24C42.1867 54.6267 41.6333 53.9133 41.22 53.1C40.8067 52.2733 40.6 51.3933 40.6 50.46V48.86H41.36ZM45.48 48.42V49.22H36.32V48.42H45.48ZM49.16 47.08V57.46H48.24V47.08H49.16ZM51.9 51.9V52.7H48.9V51.9H51.9ZM49.16 58.52V64.34H48.24V59.3H38.18V58.52H49.16ZM58.7405 48.12V50.04C58.7405 51.0933 58.5271 52.0733 58.1005 52.98C57.6738 53.8867 57.1005 54.6733 56.3805 55.34C55.6605 55.9933 54.8538 56.5067 53.9605 56.88L53.4605 56.12C54.2871 55.8 55.0405 55.34 55.7205 54.74C56.4005 54.14 56.9471 53.44 57.3605 52.64C57.7738 51.8267 57.9805 50.96 57.9805 50.04V48.12H58.7405ZM58.8605 48.12V50.02C58.8605 50.8467 59.0605 51.64 59.4605 52.4C59.8738 53.1467 60.4138 53.8 61.0805 54.36C61.7605 54.92 62.5071 55.3467 63.3205 55.64L62.7605 56.38C61.8938 56.02 61.1071 55.5333 60.4005 54.92C59.6938 54.2933 59.1271 53.56 58.7005 52.72C58.2871 51.88 58.0805 50.98 58.0805 50.02V48.12H58.8605ZM67.3605 47.08V57.36H66.4405V47.08H67.3605ZM61.8405 57.9C63.5871 57.9 64.9538 58.1867 65.9405 58.76C66.9405 59.32 67.4405 60.1067 67.4405 61.12C67.4405 62.12 66.9471 62.8933 65.9605 63.44C64.9738 64 63.6005 64.28 61.8405 64.28C60.0671 64.28 58.6805 64 57.6805 63.44C56.6805 62.8933 56.1805 62.12 56.1805 61.12C56.1805 60.1067 56.6805 59.32 57.6805 58.76C58.6938 58.1867 60.0805 57.9 61.8405 57.9ZM61.8405 58.7C60.8938 58.7 60.0605 58.8 59.3405 59C58.6338 59.1867 58.0871 59.4667 57.7005 59.84C57.3138 60.2 57.1205 60.6267 57.1205 61.12C57.1205 61.6 57.3138 62.02 57.7005 62.38C58.0871 62.74 58.6338 63.0133 59.3405 63.2C60.0605 63.4 60.8938 63.5 61.8405 63.5C62.7738 63.5 63.5938 63.4 64.3005 63.2C65.0071 63.0133 65.5538 62.74 65.9405 62.38C66.3405 62.02 66.5405 61.6 66.5405 61.12C66.5405 60.6267 66.3471 60.2 65.9605 59.84C65.5738 59.4667 65.0205 59.1867 64.3005 59C63.5938 58.8 62.7738 58.7 61.8405 58.7ZM66.7605 51.1V51.92H62.2605V51.1H66.7605ZM79.1009 55.7V58.68H78.1809V55.7H79.1009ZM86.4409 55.32V56.12H70.8609V55.32H86.4409ZM78.6609 58.36C80.5009 58.36 81.9343 58.62 82.9609 59.14C83.9876 59.6467 84.5009 60.3733 84.5009 61.32C84.5009 62.2533 83.9876 62.98 82.9609 63.5C81.9343 64.02 80.5009 64.28 78.6609 64.28C76.8209 64.28 75.3876 64.02 74.3609 63.5C73.3343 62.98 72.8209 62.2533 72.8209 61.32C72.8209 60.3733 73.3343 59.6467 74.3609 59.14C75.3876 58.62 76.8209 58.36 78.6609 58.36ZM78.6609 59.12C77.1543 59.12 75.9543 59.32 75.0609 59.72C74.1809 60.1067 73.7409 60.64 73.7409 61.32C73.7409 62 74.1809 62.54 75.0609 62.94C75.9543 63.3267 77.1543 63.52 78.6609 63.52C80.1543 63.52 81.3476 63.3267 82.2409 62.94C83.1343 62.54 83.5809 62 83.5809 61.32C83.5809 60.64 83.1343 60.1067 82.2409 59.72C81.3476 59.32 80.1543 59.12 78.6609 59.12ZM78.9609 48.38V48.94C78.9609 49.86 78.6209 50.6733 77.9409 51.38C77.2609 52.0867 76.4076 52.66 75.3809 53.1C74.3676 53.54 73.3276 53.8467 72.2609 54.02L71.8809 53.26C72.8143 53.14 73.7609 52.8867 74.7209 52.5C75.6943 52.1133 76.5009 51.6133 77.1409 51C77.7943 50.3867 78.1209 49.7 78.1209 48.94V48.38H78.9609ZM79.2009 48.38V48.94C79.2009 49.6867 79.5209 50.3667 80.1609 50.98C80.8143 51.5933 81.6209 52.1 82.5809 52.5C83.5543 52.8867 84.5076 53.14 85.4409 53.26L85.0609 54.02C83.9943 53.8467 82.9476 53.54 81.9209 53.1C80.9076 52.66 80.0609 52.0867 79.3809 51.38C78.7143 50.66 78.3809 49.8467 78.3809 48.94V48.38H79.2009ZM85.0409 47.96V48.74H72.3209V47.96H85.0409ZM102.341 47.1V59.82H101.401V47.1H102.341ZM102.921 63.08V63.88H91.5614V63.08H102.921ZM92.4814 58.52V63.26H91.5614V58.52H92.4814ZM93.1814 48.38C94.0081 48.38 94.7547 48.56 95.4214 48.92C96.0881 49.2667 96.6081 49.7533 96.9814 50.38C97.3547 51.0067 97.5414 51.72 97.5414 52.52C97.5414 53.3333 97.3547 54.0533 96.9814 54.68C96.6081 55.3067 96.0881 55.8 95.4214 56.16C94.7547 56.5067 94.0081 56.68 93.1814 56.68C92.3547 56.68 91.6081 56.5067 90.9414 56.16C90.2881 55.8 89.7681 55.3067 89.3814 54.68C89.0081 54.0533 88.8214 53.3333 88.8214 52.52C88.8214 51.72 89.0081 51.0067 89.3814 50.38C89.7681 49.7533 90.2881 49.2667 90.9414 48.92C91.6081 48.56 92.3547 48.38 93.1814 48.38ZM93.1814 49.18C92.5414 49.18 91.9547 49.3267 91.4214 49.62C90.9014 49.9133 90.4881 50.32 90.1814 50.84C89.8747 51.3467 89.7214 51.9067 89.7214 52.52C89.7214 53.1333 89.8747 53.7 90.1814 54.22C90.4881 54.7267 90.9014 55.1267 91.4214 55.42C91.9547 55.7 92.5414 55.84 93.1814 55.84C93.8347 55.84 94.4281 55.7 94.9614 55.42C95.4947 55.1267 95.9081 54.7267 96.2014 54.22C96.5081 53.7 96.6614 53.1333 96.6614 52.52C96.6614 51.9067 96.5081 51.3467 96.2014 50.84C95.9081 50.32 95.4947 49.9133 94.9614 49.62C94.4281 49.3267 93.8347 49.18 93.1814 49.18ZM117.551 49.24V59.46H111.171V49.24H117.551ZM112.051 50V58.72H116.671V50H112.051ZM124.971 47.08V64.34H124.071V47.08H124.971ZM121.131 53.76V54.56H117.091V53.76H121.131ZM121.631 47.54V63.4H120.731V47.54H121.631ZM132.732 47.8C133.572 47.8 134.318 47.96 134.972 48.28C135.638 48.6 136.158 49.0467 136.532 49.62C136.905 50.18 137.092 50.82 137.092 51.54C137.092 52.2733 136.905 52.92 136.532 53.48C136.158 54.04 135.638 54.48 134.972 54.8C134.318 55.1067 133.572 55.26 132.732 55.26C131.905 55.26 131.158 55.1067 130.492 54.8C129.838 54.48 129.325 54.04 128.952 53.48C128.578 52.92 128.392 52.2733 128.392 51.54C128.392 50.82 128.578 50.18 128.952 49.62C129.325 49.0467 129.838 48.6 130.492 48.28C131.158 47.96 131.905 47.8 132.732 47.8ZM132.732 48.58C132.092 48.58 131.512 48.7133 130.992 48.98C130.472 49.2467 130.058 49.6067 129.752 50.06C129.458 50.5 129.312 50.9933 129.312 51.54C129.312 52.1 129.458 52.6067 129.752 53.06C130.058 53.5 130.472 53.8467 130.992 54.1C131.512 54.3533 132.092 54.48 132.732 54.48C133.398 54.48 133.992 54.3533 134.512 54.1C135.032 53.8467 135.438 53.5 135.732 53.06C136.038 52.6067 136.192 52.1 136.192 51.54C136.192 50.9933 136.038 50.5 135.732 50.06C135.438 49.6067 135.032 49.2467 134.512 48.98C133.992 48.7133 133.398 48.58 132.732 48.58ZM141.912 47.08V56.06H140.972V47.08H141.912ZM141.912 57.02V60.8H131.952V63.76H131.072V60.06H140.992V57.8H131.012V57.02H141.912ZM142.592 63.28V64.08H131.072V63.28H142.592ZM153.172 47.42C155.052 47.42 156.512 47.68 157.552 48.2C158.592 48.72 159.112 49.4667 159.112 50.44C159.112 51.4 158.592 52.1467 157.552 52.68C156.512 53.2 155.052 53.46 153.172 53.46C151.306 53.46 149.846 53.2 148.792 52.68C147.752 52.1467 147.232 51.4 147.232 50.44C147.232 49.4667 147.752 48.72 148.792 48.2C149.846 47.68 151.306 47.42 153.172 47.42ZM153.172 48.16C151.652 48.16 150.439 48.3667 149.532 48.78C148.626 49.18 148.172 49.7333 148.172 50.44C148.172 51.1467 148.619 51.7 149.512 52.1C150.419 52.5 151.639 52.7 153.172 52.7C154.706 52.7 155.919 52.5 156.812 52.1C157.719 51.7 158.172 51.1467 158.172 50.44C158.172 49.7333 157.719 49.18 156.812 48.78C155.919 48.3667 154.706 48.16 153.172 48.16ZM160.972 54.88V55.66H145.392V54.88H160.972ZM158.892 57.5V60.98H148.312V63.48H147.412V60.24H157.992V58.26H147.352V57.5H158.892ZM159.452 63.3V64.08H147.412V63.3H159.452ZM180.762 47.08V56.82H179.842V47.08H180.762ZM183.482 51.32V52.14H180.502V51.32H183.482ZM169.682 54.8C171.455 54.8 172.922 54.76 174.082 54.68C175.255 54.5867 176.442 54.4267 177.642 54.2L177.782 54.98C176.529 55.22 175.309 55.3867 174.122 55.48C172.935 55.5733 171.455 55.62 169.682 55.62H168.422V54.8H169.682ZM175.942 48.24V49.04H169.342V55.24H168.422V48.24H175.942ZM180.922 57.9V58.7H171.242V63.54H170.302V57.9H180.922ZM181.262 63.28V64.08H170.302V63.28H181.262ZM189.543 48.5C190.369 48.5 191.096 48.7467 191.723 49.24C192.363 49.72 192.856 50.4067 193.203 51.3C193.549 52.1933 193.723 53.2333 193.723 54.42C193.723 55.5933 193.549 56.6267 193.203 57.52C192.856 58.4133 192.363 59.1067 191.723 59.6C191.096 60.08 190.369 60.32 189.543 60.32C188.716 60.32 187.983 60.08 187.343 59.6C186.716 59.1067 186.229 58.4133 185.883 57.52C185.536 56.6267 185.363 55.5933 185.363 54.42C185.363 53.2333 185.536 52.1933 185.883 51.3C186.229 50.4067 186.716 49.72 187.343 49.24C187.983 48.7467 188.716 48.5 189.543 48.5ZM189.543 49.32C188.903 49.32 188.329 49.54 187.823 49.98C187.316 50.4067 186.923 51.0067 186.643 51.78C186.363 52.5533 186.223 53.4333 186.223 54.42C186.223 55.3933 186.363 56.2733 186.643 57.06C186.923 57.8333 187.316 58.44 187.823 58.88C188.329 59.32 188.903 59.54 189.543 59.54C190.196 59.54 190.769 59.32 191.263 58.88C191.769 58.44 192.156 57.8333 192.423 57.06C192.703 56.2733 192.843 55.3933 192.843 54.42C192.843 53.4333 192.703 52.5533 192.423 51.78C192.156 51.0067 191.769 50.4067 191.263 49.98C190.769 49.54 190.196 49.32 189.543 49.32ZM198.063 47.08V64.34H197.143V47.08H198.063ZM201.123 54.26V55.06H197.823V54.26H201.123ZM216.183 55.4V56.18H204.563V55.4H216.183ZM218.103 61.18V62H202.443V61.18H218.103ZM210.683 55.7V61.62H209.783V55.7H210.683ZM215.983 48.58V49.38H205.483V55.76H204.563V48.58H215.983ZM41.22 74.38V77.8C41.22 78.8667 40.9733 79.9533 40.48 81.06C40 82.1533 39.38 83.1333 38.62 84C37.86 84.8667 37.08 85.52 36.28 85.96L35.72 85.22C36.4533 84.8333 37.1867 84.24 37.92 83.44C38.6667 82.64 39.2733 81.74 39.74 80.74C40.22 79.7267 40.46 78.7467 40.46 77.8V74.38H41.22ZM41.34 74.38V77.8C41.34 78.7067 41.56 79.6333 42 80.58C42.4533 81.5133 43.0333 82.36 43.74 83.12C44.46 83.8667 45.2 84.4267 45.96 84.8L45.42 85.56C44.5933 85.12 43.8067 84.4933 43.06 83.68C42.3267 82.8533 41.7267 81.9267 41.26 80.9C40.8067 79.86 40.58 78.8267 40.58 77.8V74.38H41.34ZM45.46 73.92V74.72H36.28V73.92H45.46ZM48.98 72.08V89.34H48.06V72.08H48.98ZM52.04 79.34V80.14H48.76V79.34H52.04ZM68.9605 80.88V81.66H53.4005V80.88H68.9605ZM61.6205 78V81.26H60.7005V78H61.6205ZM67.1005 77.7V78.5H55.4205V77.7H67.1005ZM66.9605 72.92V73.7H56.3205V78.12H55.4205V72.92H66.9605ZM61.1805 83.18C63.0071 83.18 64.4338 83.4467 65.4605 83.98C66.5005 84.5133 67.0205 85.2667 67.0205 86.24C67.0205 87.2133 66.5071 87.9667 65.4805 88.5C64.4538 89.0333 63.0205 89.3 61.1805 89.3C59.3405 89.3 57.9071 89.0333 56.8805 88.5C55.8538 87.9667 55.3405 87.2133 55.3405 86.24C55.3405 85.2667 55.8538 84.5133 56.8805 83.98C57.9071 83.4467 59.3405 83.18 61.1805 83.18ZM61.1805 83.96C59.6871 83.96 58.4938 84.1667 57.6005 84.58C56.7071 84.98 56.2605 85.5333 56.2605 86.24C56.2605 86.9467 56.7071 87.5067 57.6005 87.92C58.4938 88.32 59.6871 88.52 61.1805 88.52C62.6738 88.52 63.8671 88.32 64.7605 87.92C65.6538 87.5067 66.1005 86.9467 66.1005 86.24C66.1005 85.5333 65.6538 84.98 64.7605 84.58C63.8671 84.1667 62.6738 83.96 61.1805 83.96ZM78.6409 73.34C79.8143 73.34 80.8676 73.5333 81.8009 73.92C82.7476 74.2933 83.4809 74.8267 84.0009 75.52C84.5209 76.2133 84.7809 77.0133 84.7809 77.92C84.7809 78.8267 84.5209 79.6333 84.0009 80.34C83.4809 81.0333 82.7543 81.5733 81.8209 81.96C80.8876 82.3333 79.8276 82.52 78.6409 82.52C77.4676 82.52 76.4143 82.3333 75.4809 81.96C74.5609 81.5733 73.8343 81.0333 73.3009 80.34C72.7676 79.6333 72.5009 78.8267 72.5009 77.92C72.5009 77.0133 72.7676 76.2133 73.3009 75.52C73.8343 74.8267 74.5609 74.2933 75.4809 73.92C76.4143 73.5333 77.4676 73.34 78.6409 73.34ZM78.6609 74.08C77.6743 74.08 76.7743 74.2467 75.9609 74.58C75.1609 74.9133 74.5276 75.3733 74.0609 75.96C73.6076 76.5333 73.3809 77.1867 73.3809 77.92C73.3809 78.6667 73.6076 79.3333 74.0609 79.92C74.5276 80.4933 75.1609 80.9467 75.9609 81.28C76.7609 81.6 77.6543 81.76 78.6409 81.76C79.6409 81.76 80.5409 81.6 81.3409 81.28C82.1543 80.9467 82.7876 80.4933 83.2409 79.92C83.7076 79.3333 83.9409 78.6667 83.9409 77.92C83.9409 77.1867 83.7076 76.5333 83.2409 75.96C82.7876 75.3733 82.1543 74.9133 81.3409 74.58C80.5276 74.2467 79.6343 74.08 78.6609 74.08ZM86.5209 86.08V86.88H70.8609V86.08H86.5209ZM104.001 86.24V87.04H88.3414V86.24H104.001ZM96.5814 82.22V86.58H95.6814V82.22H96.5814ZM101.921 73.46V78.32H91.3214V82.16H90.4214V77.54H101.021V74.26H90.3614V73.46H101.921ZM102.341 81.74V82.52H90.4214V81.74H102.341ZM124.391 72.08V89.34H123.491V72.08H124.391ZM123.851 78.54V79.32H119.271V78.54H123.851ZM115.851 74.36V77.72C115.851 78.7867 115.611 79.86 115.131 80.94C114.651 82.0067 114.031 82.9733 113.271 83.84C112.511 84.6933 111.731 85.34 110.931 85.78L110.371 85.04C111.118 84.6667 111.851 84.0867 112.571 83.3C113.305 82.5 113.905 81.6067 114.371 80.62C114.838 79.6333 115.071 78.6667 115.071 77.72V74.36H115.851ZM115.991 74.36V77.72C115.991 78.6 116.218 79.5133 116.671 80.46C117.138 81.3933 117.738 82.24 118.471 83C119.205 83.7467 119.945 84.3067 120.691 84.68L120.131 85.42C119.318 84.9933 118.531 84.3733 117.771 83.56C117.025 82.7333 116.411 81.8067 115.931 80.78C115.465 79.7533 115.231 78.7333 115.231 77.72V74.36H115.991ZM120.151 73.92V74.72H110.951V73.92H120.151ZM133.232 73.88V75.5C133.232 76.5 133.018 77.4333 132.592 78.3C132.178 79.1667 131.605 79.92 130.872 80.56C130.152 81.1867 129.352 81.6667 128.472 82L127.992 81.26C128.805 80.9667 129.552 80.54 130.232 79.98C130.912 79.4067 131.458 78.7333 131.872 77.96C132.285 77.1867 132.492 76.3667 132.492 75.5V73.88H133.232ZM133.372 73.88V75.48C133.372 76.2667 133.565 77.0133 133.952 77.72C134.352 78.4267 134.878 79.0467 135.532 79.58C136.198 80.1133 136.925 80.5267 137.712 80.82L137.272 81.54C136.405 81.22 135.618 80.76 134.912 80.16C134.205 79.56 133.645 78.86 133.232 78.06C132.818 77.26 132.612 76.4 132.612 75.48V73.88H133.372ZM137.492 73.44V74.24H128.332V73.44H137.492ZM141.172 72.08V82.6H140.252V72.08H141.172ZM143.912 76.76V77.56H140.912V76.76H143.912ZM135.772 83.18C136.918 83.18 137.905 83.3 138.732 83.54C139.572 83.7667 140.212 84.1067 140.652 84.56C141.105 85.0133 141.332 85.56 141.332 86.2C141.332 87.1733 140.838 87.9267 139.852 88.46C138.878 89.0067 137.518 89.28 135.772 89.28C134.625 89.28 133.638 89.16 132.812 88.92C131.985 88.68 131.345 88.3267 130.892 87.86C130.452 87.3933 130.232 86.84 130.232 86.2C130.232 85.56 130.452 85.0133 130.892 84.56C131.345 84.1067 131.985 83.7667 132.812 83.54C133.638 83.3 134.625 83.18 135.772 83.18ZM135.772 83.96C134.838 83.96 134.018 84.0533 133.312 84.24C132.618 84.4267 132.078 84.6867 131.692 85.02C131.318 85.3533 131.132 85.7467 131.132 86.2C131.132 86.9067 131.552 87.4667 132.392 87.88C133.232 88.2933 134.358 88.5 135.772 88.5C137.185 88.5 138.312 88.2933 139.152 87.88C140.005 87.4667 140.432 86.9067 140.432 86.2C140.432 85.7467 140.238 85.3533 139.852 85.02C139.465 84.6867 138.918 84.4267 138.212 84.24C137.518 84.0533 136.705 83.96 135.772 83.96ZM151.572 77.98V80.86H150.652V77.98H151.572ZM159.312 72.1V81.98H158.392V72.1H159.312ZM145.472 80.58C147.646 80.58 149.659 80.54 151.512 80.46C153.366 80.38 155.112 80.2133 156.752 79.96L156.812 80.66C155.119 80.9667 153.346 81.1667 151.492 81.26C149.652 81.3533 147.692 81.4 145.612 81.4L145.472 80.58ZM155.292 77.48V78.26H147.072V77.48H155.292ZM155.072 73V73.8H147.992V77.88H147.072V73H155.072ZM149.232 82.8V85H158.412V82.8H159.312V89.08H148.312V82.8H149.232ZM149.232 88.28H158.412V85.76H149.232V88.28ZM176.773 72.08V89.34H175.873V72.08H176.773ZM165.013 73.82V84.46H164.113V73.82H165.013ZM165.433 83.92C168.353 83.92 171.133 83.6333 173.773 83.06L173.913 83.9C172.433 84.1933 171.006 84.4067 169.633 84.54C168.273 84.6733 166.873 84.74 165.433 84.74H164.113V83.92H165.433ZM193.453 72.08V89.34H192.533V72.08H193.453ZM196.513 79.2V80H193.213V79.2H196.513ZM182.453 84.12C184.253 84.12 185.753 84.08 186.953 84C188.153 83.9067 189.373 83.7333 190.613 83.48L190.753 84.32C189.46 84.56 188.2 84.7267 186.973 84.82C185.76 84.9 184.253 84.94 182.453 84.94H181.173V84.12H182.453ZM189.153 73.82V74.6H182.093V84.44H181.173V73.82H189.153ZM198.914 86.68C199.14 86.68 199.32 86.7533 199.454 86.9C199.6 87.0333 199.674 87.2133 199.674 87.44C199.674 87.6667 199.6 87.8533 199.454 88C199.32 88.1467 199.14 88.22 198.914 88.22C198.687 88.22 198.5 88.1467 198.354 88C198.207 87.8533 198.134 87.6667 198.134 87.44C198.134 87.2133 198.207 87.0333 198.354 86.9C198.5 86.7533 198.687 86.68 198.914 86.68Z" fill="#2F3438"/>
<defs>
<filter id="filter0_f_306_144" x="0.3" y="0.3" width="340.4" height="340.4" filterUnits="userSpaceOnUse" color-interpolation-filters="sRGB">
<feFlood flood-opacity="0" result="BackgroundImageFix"/>
<feBlend mode="normal" in="SourceGraphic" in2="BackgroundImageFix" result="shape"/>
<feGaussianBlur stdDeviation="2.35" result="effect1_foregroundBlur_306_144"/>
</filter>
<filter id="filter1_d_306_144" x="11" y="15" width="318" height="320" filterUnits="userSpaceOnUse" color-interpolation-filters="sRGB">
<feFlood flood-opacity="0" result="BackgroundImageFix"/>
<feColorMatrix in="SourceAlpha" type="matrix" values="0 0 0 0 0 0 0 0 0 0 0 0 0 0 0 0 0 0 127 0" result="hardAlpha"/>
<feOffset dy="4"/>
<feGaussianBlur stdDeviation="2"/>
<feComposite in2="hardAlpha" operator="out"/>
<feColorMatrix type="matrix" values="0 0 0 0 0 0 0 0 0 0 0 0 0 0 0 0 0 0 0.25 0"/>
<feBlend mode="normal" in2="BackgroundImageFix" result="effect1_dropShadow_306_144"/>
<feBlend mode="normal" in="SourceGraphic" in2="effect1_dropShadow_306_144" result="shape"/>
</filter>
</defs>
</svg>
