<?xml version="1.0" encoding="UTF-8"?>
<svg id="_레이어_1" xmlns="http://www.w3.org/2000/svg" xmlns:xlink="http://www.w3.org/1999/xlink" version="1.1" viewBox="0 0 1130.6 844.9">
  <!-- Generator: Adobe Illustrator 29.0.1, SVG Export Plug-In . SVG Version: 2.1.0 Build 192)  -->
  <defs>
    <style>
      .st0 {
        fill: url(#_무제_그라디언트);
      }

      .st1 {
        fill: url(#_무제_그라디언트_2);
      }

      .st2 {
        fill: url(#_무제_그라디언트_3);
      }

      .st3 {
        fill: #fff;
      }
    </style>
    <linearGradient id="_무제_그라디언트" data-name="무제 그라디언트" x1="-119" y1="311.4" x2="232.2" y2="610.1" gradientTransform="translate(0 843.9) scale(1 -1)" gradientUnits="userSpaceOnUse">
      <stop offset="0" stop-color="#afd7f0"/>
      <stop offset="1" stop-color="#89a0cf"/>
    </linearGradient>
    <linearGradient id="_무제_그라디언트_2" data-name="무제 그라디언트 2" x1="0" y1="583" x2="1130.6" y2="583" gradientTransform="translate(0 843.9) scale(1 -1)" gradientUnits="userSpaceOnUse">
      <stop offset="0" stop-color="#90bde5"/>
      <stop offset="1" stop-color="#bfbcdd"/>
    </linearGradient>
    <linearGradient id="_무제_그라디언트_3" data-name="무제 그라디언트 3" x1="984.2" y1="86.3" x2="1097" y2="182.2" gradientTransform="translate(212.3 76.5) rotate(45) scale(1 -1)" gradientUnits="userSpaceOnUse">
      <stop offset="0" stop-color="#afd7f0"/>
      <stop offset="1" stop-color="#89a0cf"/>
    </linearGradient>
  </defs>
  <path class="st0" d="M0,9.3v826.3c0,8.3,11.2,12.4,17.7,6.6l440.3-394.2c3.9-3.5,4.1-9.1.3-12.8L18,3C11.6-3.2,0,.8,0,9.3Z"/>
  <path class="st1" d="M1119.1,0H11.4C2.2,0-3.2,9.3,2.1,16l385.4,496.3c4.6,5.9,11.6,9.3,19,9.3h332.3c7.6,0,14.7-3.6,19.3-9.7L1128.6,15.9C1133.7,9.1,1128.3,0,1119.1,0Z"/>
  <circle class="st2" cx="1032.5" cy="716.5" r="98.1" transform="translate(-204.2 939.9) rotate(-45)"/>
  <text/>
  <g>
    <path class="st3" d="M27.3-109.1l.8-8.9-7.4,5.1-3.9-6.8,8.1-3.8-8.1-3.8,3.9-6.8,7.4,5.1-.8-8.9h7.8l-.8,8.9,7.4-5.1,3.9,6.8-8.1,3.8,8.1,3.8-3.9,6.8-7.4-5.1.8,8.9h-7.8Z"/>
    <path class="st3" d="M81.6-138.6v43.2h-26.5v-43.2h26.5ZM65.7-129.9v25.6h5.4v-25.6h-5.4ZM95.9-144.1v61.5h-10.6v-61.5h10.6ZM103-120.6v9.1h-9.9v-9.1h9.9ZM110.4-144.9v65h-10.8v-65h10.8Z"/>
    <path class="st3" d="M134.5-143.2c3.3,0,6.3.7,9,2,2.7,1.3,4.8,3.1,6.4,5.4,1.6,2.3,2.3,4.9,2.3,7.8s-.8,5.4-2.3,7.7c-1.6,2.3-3.7,4.1-6.4,5.4-2.7,1.3-5.7,2-9,2s-6.4-.6-9.1-2c-2.7-1.3-4.9-3.1-6.4-5.4-1.6-2.3-2.3-4.9-2.3-7.7s.8-5.5,2.3-7.8c1.5-2.3,3.7-4.1,6.4-5.4,2.7-1.3,5.8-2,9.1-2ZM170.8-110.4v18.9h-33.3v6.7h-11v-14.8h33v-2.2h-33.2v-8.6h44.5ZM172.2-89.2v8.8h-45.7v-8.8h45.7ZM134.5-134.1c-1.4,0-2.6.2-3.6.7-1,.4-1.9,1.1-2.5,2-.6.9-.9,2-.9,3.3,0,1.3.3,2.4.9,3.3.6.9,1.4,1.6,2.5,2,1,.5,2.3.7,3.6.7,1.3,0,2.5-.3,3.5-.7,1-.5,1.8-1.1,2.4-2,.6-.9.8-2,.8-3.3s-.3-2.4-.8-3.3c-.6-.9-1.4-1.6-2.4-2-1-.4-2.2-.7-3.5-.7ZM170.8-144.9v32.1h-11.3v-32.1h11.3Z"/>
    <path class="st3" d="M193.8-92.3l-6.5,20.6h-8.9l3.2-20.6h12.2Z"/>
    <path class="st3" d="M214.1-137.7h16.7l12.2,29.6h.6l12.1-29.6h16.7v50.9h-13.1v-29.9h-.4l-11.6,29.6h-8l-11.6-29.8h-.4v30.1h-13.1v-50.9Z"/>
    <path class="st3" d="M301-102.5c-.1,0-.4,0-.7,0-.3,0-.7,0-1.1,0-.9,0-1.8.1-2.9.2-1,0-1.8.1-2.4.2-1.2.1-2.1.6-2.8,1.3s-1.1,1.6-1.1,2.7.2,1.4.5,1.9.9.9,1.5,1.2c.6.3,1.4.4,2.2.4s2.2-.2,3.1-.7c1-.5,1.7-1.1,2.3-2,.6-.9.9-1.9.9-3v-12.6c0-.7-.3-1.3-.6-1.8-.4-.5-.9-.9-1.5-1.2-.6-.3-1.4-.4-2.3-.4s-1.7.1-2.4.4c-.7.3-1.2.7-1.7,1.2-.4.5-.7,1.2-.8,2h-12.3c.2-2.4.9-4.5,2.3-6.5,1.3-1.9,3.3-3.5,5.8-4.6,2.6-1.1,5.6-1.7,9.3-1.7s6.5.5,9.2,1.6c2.6,1.1,4.7,2.6,6.1,4.5,1.4,1.9,2.2,4.1,2.2,6.5v26.1h-12.5v-5.4h-.3c-.7,1.4-1.7,2.5-2.7,3.4-1.1.9-2.3,1.5-3.7,2-1.4.4-2.9.6-4.7.6-2.5,0-4.6-.4-6.5-1.2-1.9-.8-3.3-2.1-4.4-3.7-1.1-1.7-1.6-3.7-1.6-6.2,0-4,1.3-6.9,3.9-8.8,2.6-1.9,6-3,10.2-3.3.9,0,2.2-.1,3.8-.2,1.6,0,2.9-.1,4.1-.2.4,0,.7,0,1,0,.3,0,.5,0,.6,0v7.5Z"/>
    <path class="st3" d="M320.5-86.8v-38.2h13.3v38.2h-13.3ZM327.1-129.1c-1.2,0-2.3-.3-3.3-.8-1-.6-1.8-1.3-2.4-2.2s-.9-2-.9-3.1.3-2.1.9-3.1c.6-.9,1.4-1.7,2.4-2.2,1-.6,2.1-.8,3.3-.8s2.3.3,3.3.8c1,.6,1.8,1.3,2.4,2.2.6.9.9,2,.9,3.1s-.3,2.1-.9,3.1-1.4,1.7-2.4,2.2c-1,.6-2.1.8-3.3.8Z"/>
    <path class="st3" d="M354.2-137.7v50.9h-13.3v-50.9h13.3Z"/>
    <path class="st3" d="M399.2-112.7c-.1-1.2-.7-2.1-1.7-2.8-1-.7-2.2-1.1-3.7-1.1s-1.6.1-2.3.3c-.7.2-1.2.5-1.6.9s-.6.9-.6,1.4c0,.7.2,1.2.8,1.7s1.6.9,3,1.1l7.6,1.4c3.9.7,6.8,1.9,8.7,3.6,1.9,1.7,2.9,3.9,2.9,6.7,0,2.7-.8,5-2.4,7-1.6,2-3.7,3.5-6.5,4.6-2.8,1.1-5.9,1.6-9.4,1.6s-7-.5-9.8-1.6-4.9-2.6-6.5-4.5c-1.5-1.9-2.4-4.2-2.7-6.8h13.2c.2,1.3.8,2.2,1.8,2.9,1,.7,2.4,1,4,1s1.7-.1,2.4-.3c.7-.2,1.2-.5,1.6-.9.4-.4.6-.9.6-1.4,0-.8-.4-1.4-1.1-1.8-.7-.5-1.8-.8-3.4-1.1l-6.7-1.2c-3.8-.7-6.7-2-8.7-3.9-1.9-1.9-2.9-4.3-2.9-7.3,0-2.6.7-4.8,2.1-6.7,1.4-1.9,3.4-3.3,6-4.2,2.6-1,5.7-1.4,9.3-1.4s6.7.5,9.3,1.5c2.6,1,4.7,2.5,6.1,4.4,1.5,1.9,2.2,4.2,2.4,6.8h-12.3Z"/>
    <path class="st3" d="M425.5-72.5c-1.3,0-2.6,0-3.7,0s-2.1,0-2.9-.1v-9.9c.4,0,.8,0,1.1,0,.4,0,.7,0,1.1,0,.7,0,1.6,0,2.8,0s1.3,0,1.8-.1c.5,0,.9-.3,1.3-.6s.7-.7.9-1.3l.3-.7-13.5-39.8h13.9l6.4,26.7h.4l6.5-26.7h14l-14,41.5c-1.2,3.5-3,6.2-5.6,8.1-2.6,1.9-6.2,2.9-10.8,2.9Z"/>
    <path class="st3" d="M460-86.8v-38.2h12.6v7.2h.4c.8-2.4,2.2-4.3,4.1-5.6,1.9-1.4,4.2-2.1,6.8-2.1s3.4.3,4.9,1c1.5.6,2.7,1.5,3.7,2.7,1,1.2,1.6,2.5,1.9,4h.4c.4-1.5,1.2-2.9,2.3-4s2.4-2.1,4-2.7c1.6-.6,3.3-1,5.2-1s4.5.5,6.4,1.6c1.9,1.1,3.3,2.6,4.3,4.5,1,2,1.5,4.2,1.5,6.8v25.8h-13.3v-22.5c0-1.7-.4-3.1-1.3-4.1-.9-1-2.1-1.5-3.5-1.5s-1.9.2-2.6.7c-.7.4-1.3,1.1-1.7,1.9-.4.8-.6,1.8-.6,2.9v22.4h-12.7v-22.5c0-1.1-.2-2.1-.6-2.9-.4-.8-1-1.5-1.7-1.9s-1.6-.7-2.5-.7-1.8.2-2.6.7c-.7.5-1.3,1.1-1.7,2-.4.8-.6,1.8-.6,3v22.4h-13.3Z"/>
    <path class="st3" d="M525.3-86.8v-50.9h13.3v19.4h.2c0-.1.1-.3.2-.4s.1-.3.2-.4c.6-1.2,1.4-2.3,2.3-3.2,1-.9,2.1-1.7,3.5-2.2s2.9-.8,4.6-.8c2.7,0,5.2.7,7.4,2.1,2.3,1.4,4.1,3.6,5.5,6.5,1.4,3,2.1,6.6,2.1,11s-.7,7.8-2,10.8-3.1,5.2-5.4,6.6c-2.3,1.5-4.8,2.2-7.6,2.2s-3.2-.3-4.6-.8c-1.4-.5-2.6-1.3-3.5-2.2s-1.8-2-2.3-3.3c0,0,0-.1,0-.2,0,0,0-.2,0-.2h-.3v6.2h-13.2ZM538.3-105.9c0,1.9.3,3.6.8,5,.5,1.4,1.2,2.5,2.2,3.2,1,.8,2.1,1.1,3.4,1.1s2.4-.4,3.4-1.1,1.7-1.8,2.2-3.2.7-3.1.7-5-.2-3.6-.7-5c-.5-1.4-1.2-2.5-2.2-3.2-.9-.7-2.1-1.1-3.4-1.1s-2.4.4-3.4,1.1-1.7,1.8-2.2,3.2-.8,3.1-.8,5Z"/>
    <path class="st3" d="M588.7-86.1c-4,0-7.5-.8-10.5-2.5-3-1.6-5.2-3.9-6.8-6.9-1.6-3-2.3-6.4-2.3-10.3s.8-7.4,2.3-10.3,3.8-5.3,6.8-6.9c3-1.6,6.5-2.5,10.5-2.5s7.5.8,10.5,2.5c3,1.6,5.2,3.9,6.8,6.9,1.6,3,2.3,6.4,2.3,10.3s-.8,7.4-2.3,10.3c-1.6,3-3.8,5.3-6.8,6.9-3,1.6-6.5,2.5-10.5,2.5ZM588.8-96c1.2,0,2.3-.4,3.2-1.2.9-.8,1.6-2,2.1-3.4.5-1.5.7-3.2.7-5.3s-.2-3.8-.7-5.2c-.5-1.5-1.2-2.6-2.1-3.4-.9-.8-2-1.2-3.2-1.2s-2.4.4-3.3,1.2c-.9.8-1.6,1.9-2.1,3.4-.5,1.5-.7,3.2-.7,5.3s.2,3.8.7,5.3c.5,1.5,1.2,2.6,2.1,3.4.9.8,2,1.2,3.3,1.2Z"/>
    <path class="st3" d="M627.4-137.7v50.9h-13.3v-50.9h13.3Z"/>
    <path class="st3" d="M663.4-137.7v50.9h-13.3v-50.9h13.3Z"/>
    <path class="st3" d="M688.8-86.1c-4,0-7.5-.8-10.5-2.5-3-1.6-5.2-3.9-6.8-6.9-1.6-3-2.3-6.4-2.3-10.3s.8-7.4,2.3-10.3,3.8-5.3,6.8-6.9c3-1.6,6.5-2.5,10.5-2.5s7.5.8,10.5,2.5c3,1.6,5.2,3.9,6.8,6.9,1.6,3,2.3,6.4,2.3,10.3s-.8,7.4-2.3,10.3c-1.6,3-3.8,5.3-6.8,6.9-3,1.6-6.5,2.5-10.5,2.5ZM688.9-96c1.2,0,2.3-.4,3.2-1.2.9-.8,1.6-2,2.1-3.4.5-1.5.7-3.2.7-5.3s-.2-3.8-.7-5.2c-.5-1.5-1.2-2.6-2.1-3.4-.9-.8-2-1.2-3.2-1.2s-2.4.4-3.3,1.2c-.9.8-1.6,1.9-2.1,3.4-.5,1.5-.7,3.2-.7,5.3s.2,3.8.7,5.3c.5,1.5,1.2,2.6,2.1,3.4.9.8,2,1.2,3.3,1.2Z"/>
    <path class="st3" d="M732.3-71.7c-3.7,0-6.9-.5-9.6-1.6-2.7-1.1-4.9-2.5-6.4-4.4-1.5-1.9-2.4-4.1-2.5-6.6h12.9c.1.8.5,1.5,1,2s1.2.9,2.1,1.1c.9.2,1.9.4,3,.4,2,0,3.6-.5,4.7-1.4,1.1-1,1.7-2.5,1.7-4.7v-6.5h-.4s0,0,0,.1c0,0,0,0,0,.1-.5,1.2-1.3,2.3-2.3,3.1s-2.2,1.5-3.7,2c-1.4.5-3,.7-4.7.7-2.8,0-5.4-.7-7.7-2-2.3-1.3-4.1-3.4-5.4-6.2-1.3-2.8-2-6.3-2-10.5s.7-8,2.1-11c1.4-2.9,3.2-5.1,5.5-6.5,2.3-1.4,4.7-2.1,7.4-2.1s3.3.3,4.6.9c1.4.6,2.5,1.3,3.5,2.3.9,1,1.7,2,2.3,3.2,0,.1,0,.2.1.4,0,.1,0,.3.1.4h.3v-6.6h13.3v38.2c0,3.2-.8,5.9-2.5,8.2-1.6,2.3-4,4-6.9,5.2-3,1.2-6.5,1.8-10.5,1.8ZM732.8-96.8c1.3,0,2.4-.4,3.4-1.1,1-.7,1.7-1.8,2.2-3.1.5-1.4.8-3,.8-4.9s-.3-3.6-.8-5c-.5-1.4-1.2-2.5-2.2-3.2-1-.7-2.1-1.1-3.4-1.1s-2.4.4-3.4,1.1c-.9.7-1.7,1.8-2.2,3.2-.5,1.4-.7,3.1-.7,5s.2,3.6.7,4.9c.5,1.4,1.2,2.4,2.1,3.1.9.7,2.1,1.1,3.4,1.1Z"/>
    <path class="st3" d="M777.6-86.1c-4,0-7.5-.8-10.5-2.5-3-1.6-5.2-3.9-6.8-6.9-1.6-3-2.3-6.4-2.3-10.3s.8-7.4,2.3-10.3,3.8-5.3,6.8-6.9c3-1.6,6.5-2.5,10.5-2.5s7.5.8,10.5,2.5c3,1.6,5.2,3.9,6.8,6.9,1.6,3,2.3,6.4,2.3,10.3s-.8,7.4-2.3,10.3c-1.6,3-3.8,5.3-6.8,6.9-3,1.6-6.5,2.5-10.5,2.5ZM777.7-96c1.2,0,2.3-.4,3.2-1.2.9-.8,1.6-2,2.1-3.4.5-1.5.7-3.2.7-5.3s-.2-3.8-.7-5.2c-.5-1.5-1.2-2.6-2.1-3.4-.9-.8-2-1.2-3.2-1.2s-2.4.4-3.3,1.2c-.9.8-1.6,1.9-2.1,3.4-.5,1.5-.7,3.2-.7,5.3s.2,3.8.7,5.3c.5,1.5,1.2,2.6,2.1,3.4.9.8,2,1.2,3.3,1.2Z"/>
    <path class="st3" d="M843.1-137.7v50.9h-13.4v-38.5h-.3l-11.2,6.8v-11.4l12.6-7.7h12.4Z"/>
  </g>
</svg>