<svg xmlns="http://www.w3.org/2000/svg" width="12" height="13" viewBox="0 0 12 13" fill="none">
  <g clip-path="url(#clip0_90_5271)">
    <path d="M4.67119 3.80854C5.25057 5.02327 5.25792 6.62297 6.55738 7.34049C7.22045 7.70661 8.10239 7.82206 8.80684 8.11596C9.01974 8.24291 8.97835 8.55705 8.76775 8.66882C7.54232 9.22628 6.12561 9.32655 5.50531 10.6908C5.22298 11.3122 5.05376 12.2339 4.74062 12.7982C4.58014 13.088 4.3323 13.0508 4.19389 12.7665C3.78649 11.9303 3.66878 10.7722 3.0356 10.0569C2.33989 9.27136 1.07261 9.08968 0.148371 8.65502C-0.0636077 8.49634 -0.0475139 8.22083 0.190674 8.09481C0.72131 7.81332 1.61567 7.70753 2.21206 7.43524C3.65314 6.77705 3.68441 5.19759 4.22746 3.89777C4.3369 3.72943 4.50381 3.6816 4.67119 3.80762V3.80854Z" fill="#C689F7"/>
    <path d="M9.65059 2.1612C9.76831 2.28125 10.0051 3.24484 10.1302 3.50058C10.4916 4.24017 11.2319 4.27697 11.9318 4.52304C12.0716 4.70932 11.9819 4.77555 11.8191 4.86524C11.3464 5.1265 10.7477 5.14121 10.3486 5.57725C9.98212 5.9774 9.95499 6.63743 9.70623 7.07944C9.63036 7.2142 9.55173 7.25054 9.4285 7.14015C9.11812 6.44701 9.09283 5.67108 8.35389 5.27644C8.14651 5.16559 7.20203 4.8749 7.12984 4.77739C7.03006 4.64309 7.12938 4.56398 7.24756 4.50602C7.88579 4.1928 8.57231 4.30963 8.95994 3.53783C9.14019 3.17861 9.22893 2.53054 9.4216 2.23802C9.47356 2.1589 9.56782 2.07611 9.65013 2.16028L9.65059 2.1612Z" fill="#C689F7"/>
    <path d="M6.10801 3.29101C6.05835 3.22938 5.94294 2.77449 5.8873 2.65076C5.60129 2.00959 5.2132 2.00131 4.61037 1.76398L4.60209 1.63519C4.59428 1.57724 4.61773 1.5846 4.65221 1.56666C4.85868 1.45719 5.18239 1.44155 5.4054 1.32519C5.94846 1.04186 5.87534 0.551553 6.09606 0.101263C6.16135 -0.032122 6.22435 -0.0335018 6.29838 0.0957439C6.52461 0.49084 6.4538 0.991265 6.91454 1.27919C7.16974 1.43834 7.51231 1.44201 7.73441 1.56988C7.77855 1.59564 7.82499 1.60944 7.82407 1.67337C7.82499 1.81549 7.24745 1.96544 7.10675 2.03075C6.81844 2.16505 6.71268 2.23129 6.5683 2.52611C6.49794 2.67008 6.33655 3.31079 6.22711 3.33241C6.19906 3.33792 6.12503 3.31263 6.10755 3.29101H6.10801Z" fill="#C689F7"/>
    <path d="M4.67119 3.80854C5.25057 5.02327 5.25792 6.62297 6.55738 7.34049C7.22045 7.70661 8.10239 7.82206 8.80684 8.11596C9.01974 8.24291 8.97835 8.55705 8.76775 8.66882C7.54232 9.22628 6.12561 9.32655 5.50531 10.6908C5.22298 11.3122 5.05376 12.2339 4.74062 12.7982C4.58014 13.088 4.3323 13.0508 4.19389 12.7665C3.78649 11.9303 3.66878 10.7722 3.0356 10.0569C2.33989 9.27136 1.07261 9.08968 0.148371 8.65502C-0.0636077 8.49634 -0.0475139 8.22083 0.190674 8.09481C0.72131 7.81332 1.61567 7.70753 2.21206 7.43524C3.65314 6.77705 3.68441 5.19759 4.22746 3.89777C4.3369 3.72943 4.50381 3.6816 4.67119 3.80762V3.80854Z" fill="#C689F7"/>
    <path d="M9.65059 2.1612C9.76831 2.28125 10.0051 3.24484 10.1302 3.50058C10.4916 4.24017 11.2319 4.27697 11.9318 4.52304C12.0716 4.70932 11.9819 4.77555 11.8191 4.86524C11.3464 5.1265 10.7477 5.14121 10.3486 5.57725C9.98212 5.9774 9.95499 6.63743 9.70623 7.07944C9.63036 7.2142 9.55173 7.25054 9.4285 7.14015C9.11812 6.44701 9.09283 5.67108 8.35389 5.27644C8.14651 5.16559 7.20203 4.8749 7.12984 4.77739C7.03006 4.64309 7.12938 4.56398 7.24756 4.50602C7.88579 4.1928 8.57231 4.30963 8.95994 3.53783C9.14019 3.17861 9.22893 2.53054 9.4216 2.23802C9.47356 2.1589 9.56782 2.07611 9.65013 2.16028L9.65059 2.1612Z" fill="#C689F7"/>
    <path d="M6.10801 3.29101C6.05835 3.22938 5.94294 2.77449 5.8873 2.65076C5.60129 2.00959 5.2132 2.00131 4.61037 1.76398L4.60209 1.63519C4.59428 1.57724 4.61773 1.5846 4.65221 1.56666C4.85868 1.45719 5.18239 1.44155 5.4054 1.32519C5.94846 1.04186 5.87534 0.551553 6.09606 0.101263C6.16135 -0.032122 6.22435 -0.0335018 6.29838 0.0957439C6.52461 0.49084 6.4538 0.991265 6.91454 1.27919C7.16974 1.43834 7.51231 1.44201 7.73441 1.56988C7.77855 1.59564 7.82499 1.60944 7.82407 1.67337C7.82499 1.81549 7.24745 1.96544 7.10675 2.03075C6.81844 2.16505 6.71268 2.23129 6.5683 2.52611C6.49794 2.67008 6.33655 3.31079 6.22711 3.33241C6.19906 3.33792 6.12503 3.31263 6.10755 3.29101H6.10801Z" fill="#C689F7"/>
  </g>
  <defs>
    <clipPath id="clip0_90_5271">
      <rect width="12" height="13" fill="white"/>
    </clipPath>
  </defs>
</svg>