<svg width="282" height="62" viewBox="0 0 282 62" fill="none" xmlns="http://www.w3.org/2000/svg">
<g filter="url(#filter0_d_134_87)">
<rect x="6" y="4" width="264" height="44" rx="12" fill="url(#paint0_linear_134_87)" fill-opacity="0.86" shape-rendering="crispEdges"/>
</g>
<path d="M34.5499 25.1375C34.6183 25.0667 34.6561 24.972 34.6552 24.8737C34.6543 24.7754 34.6149 24.6813 34.5454 24.6118C34.4759 24.5423 34.3818 24.5028 34.2835 24.502C34.1851 24.5011 34.0904 24.5389 34.0197 24.6072L31.2822 27.3447L30.0447 26.1072C29.974 26.0389 29.8792 26.0011 29.7809 26.002C29.6826 26.0028 29.5885 26.0423 29.519 26.1118C29.4495 26.1813 29.41 26.2754 29.4092 26.3737C29.4083 26.472 29.4461 26.5667 29.5144 26.6375L31.0144 28.1375C31.0848 28.2078 31.1801 28.2473 31.2796 28.2473C31.379 28.2473 31.4744 28.2078 31.5447 28.1375L34.5447 25.1375H34.5499Z" fill="white"/>
<path fill-rule="evenodd" clip-rule="evenodd" d="M32 20C28.685 20 26 22.685 26 26C26 29.315 28.685 32 32 32C35.315 32 38 29.315 38 26C38 22.685 35.315 20 32 20ZM26.75 26C26.75 23.0975 29.0975 20.75 32 20.75C34.9025 20.75 37.25 23.0975 37.25 26C37.25 28.9025 34.9025 31.25 32 31.25C29.0975 31.25 26.75 28.9025 26.75 26Z" fill="white"/>
<path d="M49.468 20.928V22.236C49.468 22.836 49.376 23.412 49.192 23.964C49.008 24.516 48.732 25.012 48.364 25.452C47.996 25.884 47.54 26.216 46.996 26.448L46.3 25.428C46.764 25.22 47.156 24.948 47.476 24.612C47.796 24.268 48.036 23.892 48.196 23.484C48.356 23.068 48.436 22.652 48.436 22.236V20.928H49.468ZM49.708 20.928V22.236C49.708 22.636 49.784 23.024 49.936 23.4C50.088 23.768 50.316 24.104 50.62 24.408C50.932 24.712 51.312 24.952 51.76 25.128L51.064 26.124C50.28 25.82 49.684 25.32 49.276 24.624C48.876 23.92 48.676 23.124 48.676 22.236V20.928H49.708ZM55.456 20.292V26.844H54.196V20.292H55.456ZM54.58 22.992V24.06H52.756V22.992H54.58ZM53.164 20.496V26.508H51.928V20.496H53.164ZM51.868 27.024C52.604 27.024 53.244 27.104 53.788 27.264C54.34 27.416 54.764 27.64 55.06 27.936C55.356 28.232 55.504 28.584 55.504 28.992C55.504 29.4 55.356 29.752 55.06 30.048C54.764 30.344 54.344 30.568 53.8 30.72C53.256 30.88 52.612 30.96 51.868 30.96C51.132 30.96 50.492 30.88 49.948 30.72C49.404 30.568 48.984 30.344 48.688 30.048C48.392 29.752 48.244 29.4 48.244 28.992C48.244 28.592 48.392 28.244 48.688 27.948C48.984 27.652 49.404 27.424 49.948 27.264C50.492 27.104 51.132 27.024 51.868 27.024ZM51.868 28.032C51.132 28.032 50.56 28.116 50.152 28.284C49.752 28.444 49.552 28.68 49.552 28.992C49.552 29.304 49.752 29.544 50.152 29.712C50.56 29.88 51.132 29.964 51.868 29.964C52.604 29.964 53.172 29.88 53.572 29.712C53.98 29.544 54.184 29.304 54.184 28.992C54.184 28.68 53.984 28.444 53.584 28.284C53.184 28.116 52.612 28.032 51.868 28.032ZM60.5443 20.868V21.864C60.5443 22.576 60.4283 23.24 60.1963 23.856C59.9643 24.472 59.6203 25.008 59.1643 25.464C58.7083 25.92 58.1563 26.26 57.5083 26.484L56.8243 25.416C57.3923 25.232 57.8723 24.96 58.2643 24.6C58.6563 24.24 58.9523 23.824 59.1523 23.352C59.3523 22.88 59.4523 22.384 59.4523 21.864V20.868H60.5443ZM60.7723 20.868V21.816C60.7723 22.312 60.8643 22.78 61.0483 23.22C61.2403 23.652 61.5203 24.036 61.8883 24.372C62.2563 24.708 62.7083 24.96 63.2443 25.128L62.5483 26.16C61.9323 25.944 61.4123 25.624 60.9883 25.2C60.5643 24.776 60.2443 24.276 60.0283 23.7C59.8123 23.124 59.7043 22.496 59.7043 21.816V20.868H60.7723ZM65.7523 20.292V26.568H64.4323V20.292H65.7523ZM62.1883 26.856C63.3083 26.856 64.1883 27.036 64.8283 27.396C65.4763 27.756 65.8003 28.26 65.8003 28.908C65.8003 29.556 65.4803 30.06 64.8403 30.42C64.2003 30.78 63.3163 30.96 62.1883 30.96C61.0603 30.96 60.1723 30.78 59.5243 30.42C58.8763 30.06 58.5523 29.556 58.5523 28.908C58.5523 28.26 58.8763 27.756 59.5243 27.396C60.1723 27.036 61.0603 26.856 62.1883 26.856ZM62.1883 27.876C61.6923 27.876 61.2723 27.916 60.9283 27.996C60.5843 28.076 60.3243 28.192 60.1483 28.344C59.9723 28.496 59.8843 28.684 59.8843 28.908C59.8843 29.132 59.9723 29.32 60.1483 29.472C60.3243 29.624 60.5843 29.74 60.9283 29.82C61.2723 29.9 61.6923 29.94 62.1883 29.94C62.6763 29.94 63.0923 29.9 63.4363 29.82C63.7803 29.74 64.0403 29.624 64.2163 29.472C64.4003 29.32 64.4923 29.132 64.4923 28.908C64.4923 28.684 64.4003 28.496 64.2163 28.344C64.0403 28.192 63.7803 28.076 63.4363 27.996C63.0923 27.916 62.6763 27.876 62.1883 27.876ZM64.6603 22.344V23.436H62.3443V22.344H64.6603ZM76.2942 23.64V24.696H71.1102V23.64H76.2942ZM74.3382 24.3V26.376H73.0182V24.3H74.3382ZM76.2342 20.952V22.008H72.4182V24.084H71.1102V20.952H76.2342ZM78.9822 20.28V28.296H77.6502V20.28H78.9822ZM79.2822 29.7V30.756H71.8662V29.7H79.2822ZM73.1862 27.744V30.12H71.8662V27.744H73.1862ZM70.1862 25.98C71.4982 25.98 72.7062 25.964 73.8102 25.932C74.9222 25.892 75.9622 25.82 76.9302 25.716L77.0262 26.664C76.0182 26.808 74.9582 26.908 73.8462 26.964C72.7422 27.012 71.5822 27.036 70.3662 27.036L70.1862 25.98ZM92.5001 20.28V30.96H91.2401V20.28H92.5001ZM91.5881 24.492V25.56H89.6921V24.492H91.5881ZM90.0761 20.496V30.432H88.8521V20.496H90.0761ZM85.1681 21.516V27.672H83.8601V21.516H85.1681ZM84.5801 27.168C85.8761 27.168 87.0801 27.06 88.1921 26.844L88.3241 27.984C87.6681 28.104 87.0361 28.188 86.4281 28.236C85.8201 28.284 85.2041 28.308 84.5801 28.308H83.8601V27.168H84.5801ZM97.4444 23.88V25.86H96.1364V23.88H97.4444ZM101.272 23.88V25.86H99.9644V23.88H101.272ZM103.54 25.44V26.472H93.8924V25.44H103.54ZM98.7044 27.12C99.8564 27.12 100.756 27.288 101.404 27.624C102.06 27.96 102.388 28.432 102.388 29.04C102.388 29.656 102.06 30.132 101.404 30.468C100.756 30.804 99.8564 30.972 98.7044 30.972C97.5444 30.972 96.6364 30.804 95.9804 30.468C95.3324 30.132 95.0084 29.656 95.0084 29.04C95.0084 28.432 95.3324 27.96 95.9804 27.624C96.6364 27.288 97.5444 27.12 98.7044 27.12ZM98.7044 28.128C98.1924 28.128 97.7604 28.164 97.4084 28.236C97.0564 28.3 96.7884 28.4 96.6044 28.536C96.4284 28.672 96.3404 28.84 96.3404 29.04C96.3404 29.344 96.5404 29.576 96.9404 29.736C97.3484 29.888 97.9364 29.964 98.7044 29.964C99.4724 29.964 100.056 29.888 100.456 29.736C100.856 29.576 101.056 29.344 101.056 29.04C101.056 28.84 100.964 28.672 100.78 28.536C100.604 28.4 100.34 28.3 99.9884 28.236C99.6444 28.164 99.2164 28.128 98.7044 28.128ZM98.7164 20.46C99.4924 20.46 100.168 20.54 100.744 20.7C101.32 20.86 101.764 21.096 102.076 21.408C102.388 21.712 102.544 22.072 102.544 22.488C102.544 22.904 102.388 23.264 102.076 23.568C101.764 23.872 101.32 24.104 100.744 24.264C100.168 24.424 99.4924 24.504 98.7164 24.504C97.9404 24.504 97.2644 24.424 96.6884 24.264C96.1124 24.104 95.6684 23.872 95.3564 23.568C95.0444 23.264 94.8884 22.904 94.8884 22.488C94.8884 22.072 95.0444 21.712 95.3564 21.408C95.6684 21.096 96.1124 20.86 96.6884 20.7C97.2644 20.54 97.9404 20.46 98.7164 20.46ZM98.7044 21.468C98.1924 21.468 97.7524 21.508 97.3844 21.588C97.0164 21.668 96.7324 21.784 96.5324 21.936C96.3404 22.088 96.2444 22.272 96.2444 22.488C96.2444 22.816 96.4604 23.068 96.8924 23.244C97.3244 23.42 97.9324 23.508 98.7164 23.508C99.4924 23.508 100.096 23.42 100.528 23.244C100.96 23.068 101.176 22.816 101.176 22.488C101.176 22.272 101.076 22.088 100.876 21.936C100.684 21.784 100.404 21.668 100.036 21.588C99.6684 21.508 99.2244 21.468 98.7044 21.468ZM109.205 20.46C110.413 20.46 111.353 20.616 112.025 20.928C112.697 21.24 113.033 21.692 113.033 22.284C113.033 22.876 112.697 23.332 112.025 23.652C111.353 23.964 110.413 24.12 109.205 24.12C107.997 24.12 107.057 23.964 106.385 23.652C105.713 23.332 105.377 22.876 105.377 22.284C105.377 21.692 105.713 21.24 106.385 20.928C107.057 20.616 107.997 20.46 109.205 20.46ZM109.205 21.42C108.397 21.42 107.785 21.496 107.369 21.648C106.953 21.792 106.745 22.008 106.745 22.296C106.745 22.576 106.949 22.788 107.357 22.932C107.773 23.076 108.385 23.148 109.193 23.148C110.009 23.148 110.625 23.076 111.041 22.932C111.457 22.788 111.665 22.576 111.665 22.296C111.665 22.008 111.453 21.792 111.029 21.648C110.613 21.496 110.005 21.42 109.205 21.42ZM114.029 24.696V25.752H104.381V24.696H114.029ZM112.829 26.46V29.076H106.817V30.156H105.533V28.152H111.533V27.456H105.497V26.46H112.829ZM113.129 29.88V30.876H105.533V29.88H113.129ZM121.259 21.36V22.104C121.259 22.776 121.143 23.408 120.911 24C120.679 24.592 120.339 25.108 119.891 25.548C119.443 25.988 118.903 26.316 118.271 26.532L117.599 25.5C118.143 25.316 118.607 25.048 118.991 24.696C119.383 24.344 119.679 23.944 119.879 23.496C120.079 23.048 120.179 22.584 120.179 22.104V21.36H121.259ZM121.511 21.36V22.104C121.511 22.544 121.607 22.976 121.799 23.4C121.991 23.816 122.271 24.188 122.639 24.516C123.015 24.844 123.471 25.1 124.007 25.284L123.347 26.316C122.731 26.108 122.207 25.792 121.775 25.368C121.343 24.944 121.015 24.452 120.791 23.892C120.575 23.324 120.467 22.728 120.467 22.104V21.36H121.511ZM125.555 22.92V24H123.395V22.92H125.555ZM123.707 20.928V21.984H117.971V20.928H123.707ZM126.491 27.168V30.972H125.171V28.236H119.279V27.168H126.491ZM126.491 20.292V26.652H125.171V20.292H126.491ZM131.675 23.88V25.86H130.367V23.88H131.675ZM135.503 23.88V25.86H134.195V23.88H135.503ZM137.771 25.44V26.472H128.123V25.44H137.771ZM132.935 27.12C134.087 27.12 134.987 27.288 135.635 27.624C136.291 27.96 136.619 28.432 136.619 29.04C136.619 29.656 136.291 30.132 135.635 30.468C134.987 30.804 134.087 30.972 132.935 30.972C131.775 30.972 130.867 30.804 130.211 30.468C129.563 30.132 129.239 29.656 129.239 29.04C129.239 28.432 129.563 27.96 130.211 27.624C130.867 27.288 131.775 27.12 132.935 27.12ZM132.935 28.128C132.423 28.128 131.991 28.164 131.639 28.236C131.287 28.3 131.019 28.4 130.835 28.536C130.659 28.672 130.571 28.84 130.571 29.04C130.571 29.344 130.771 29.576 131.171 29.736C131.579 29.888 132.167 29.964 132.935 29.964C133.703 29.964 134.287 29.888 134.687 29.736C135.087 29.576 135.287 29.344 135.287 29.04C135.287 28.84 135.195 28.672 135.011 28.536C134.835 28.4 134.571 28.3 134.219 28.236C133.875 28.164 133.447 28.128 132.935 28.128ZM132.947 20.46C133.723 20.46 134.399 20.54 134.975 20.7C135.551 20.86 135.995 21.096 136.307 21.408C136.619 21.712 136.775 22.072 136.775 22.488C136.775 22.904 136.619 23.264 136.307 23.568C135.995 23.872 135.551 24.104 134.975 24.264C134.399 24.424 133.723 24.504 132.947 24.504C132.171 24.504 131.495 24.424 130.919 24.264C130.343 24.104 129.899 23.872 129.587 23.568C129.275 23.264 129.119 22.904 129.119 22.488C129.119 22.072 129.275 21.712 129.587 21.408C129.899 21.096 130.343 20.86 130.919 20.7C131.495 20.54 132.171 20.46 132.947 20.46ZM132.935 21.468C132.423 21.468 131.983 21.508 131.615 21.588C131.247 21.668 130.963 21.784 130.763 21.936C130.571 22.088 130.475 22.272 130.475 22.488C130.475 22.816 130.691 23.068 131.123 23.244C131.555 23.42 132.163 23.508 132.947 23.508C133.723 23.508 134.327 23.42 134.759 23.244C135.191 23.068 135.407 22.816 135.407 22.488C135.407 22.272 135.307 22.088 135.107 21.936C134.915 21.784 134.635 21.668 134.267 21.588C133.899 21.508 133.455 21.468 132.935 21.468ZM149.693 20.292V30.972H148.373V20.292H149.693ZM151.313 24.54V25.632H149.393V24.54H151.313ZM147.581 21.912V22.968H141.317V21.912H147.581ZM144.473 23.688C144.985 23.688 145.445 23.796 145.853 24.012C146.261 24.22 146.577 24.516 146.801 24.9C147.033 25.276 147.149 25.708 147.149 26.196C147.149 26.684 147.033 27.12 146.801 27.504C146.569 27.88 146.249 28.176 145.841 28.392C145.441 28.6 144.989 28.704 144.485 28.704C143.973 28.704 143.513 28.6 143.105 28.392C142.705 28.176 142.389 27.876 142.157 27.492C141.925 27.108 141.809 26.676 141.809 26.196C141.809 25.716 141.925 25.284 142.157 24.9C142.389 24.516 142.705 24.22 143.105 24.012C143.513 23.796 143.969 23.688 144.473 23.688ZM144.473 24.756C144.201 24.756 143.957 24.816 143.741 24.936C143.533 25.056 143.369 25.224 143.249 25.44C143.137 25.656 143.081 25.908 143.081 26.196C143.081 26.484 143.137 26.736 143.249 26.952C143.369 27.168 143.533 27.336 143.741 27.456C143.957 27.568 144.201 27.624 144.473 27.624C144.745 27.624 144.985 27.568 145.193 27.456C145.409 27.336 145.577 27.168 145.697 26.952C145.817 26.736 145.877 26.484 145.877 26.196C145.877 25.908 145.817 25.656 145.697 25.44C145.577 25.224 145.409 25.056 145.193 24.936C144.985 24.816 144.745 24.756 144.473 24.756ZM145.133 20.448V22.344H143.801V20.448H145.133ZM155.609 21.156V22.836C155.609 23.724 155.489 24.568 155.249 25.368C155.009 26.16 154.657 26.856 154.193 27.456C153.737 28.056 153.185 28.512 152.537 28.824L151.745 27.732C152.313 27.476 152.805 27.096 153.221 26.592C153.645 26.088 153.969 25.512 154.193 24.864C154.417 24.208 154.529 23.532 154.529 22.836V21.156H155.609ZM155.861 21.156V22.836C155.861 23.5 155.969 24.144 156.185 24.768C156.401 25.392 156.713 25.948 157.121 26.436C157.537 26.916 158.025 27.28 158.585 27.528L157.817 28.596C157.185 28.3 156.637 27.864 156.173 27.288C155.717 26.704 155.369 26.032 155.129 25.272C154.897 24.504 154.781 23.692 154.781 22.836V21.156H155.861ZM160.661 20.268V30.984H159.341V20.268H160.661ZM167.045 21.036C167.045 22.356 166.713 23.484 166.049 24.42C165.393 25.348 164.389 26.096 163.037 26.664L162.389 25.704C163.517 25.256 164.349 24.684 164.885 23.988C165.429 23.292 165.701 22.46 165.701 21.492V21.036H167.045ZM166.229 21.036V22.104H162.905V21.036H166.229ZM171.413 20.28V26.388H170.153V20.28H171.413ZM168.233 23.16V24.216H165.845V23.16H168.233ZM169.241 20.496V26.256H168.005V20.496H169.241ZM165.929 26.736V27.3C165.929 27.828 165.837 28.328 165.653 28.8C165.477 29.272 165.209 29.692 164.849 30.06C164.497 30.428 164.057 30.708 163.529 30.9L162.881 29.94C163.329 29.78 163.705 29.56 164.009 29.28C164.321 29 164.553 28.692 164.705 28.356C164.865 28.012 164.945 27.66 164.945 27.3V26.736H165.929ZM166.205 26.736V27.3C166.205 27.868 166.361 28.4 166.673 28.896C166.985 29.392 167.449 29.768 168.065 30.024L167.525 30.996C166.757 30.7 166.185 30.22 165.809 29.556C165.441 28.884 165.257 28.132 165.257 27.3V26.736H166.205ZM169.781 26.736V27.3C169.781 27.788 169.701 28.276 169.541 28.764C169.381 29.244 169.133 29.684 168.797 30.084C168.461 30.484 168.037 30.788 167.525 30.996L166.973 30.024C167.389 29.832 167.737 29.584 168.017 29.28C168.297 28.976 168.505 28.652 168.641 28.308C168.777 27.964 168.845 27.628 168.845 27.3V26.736H169.781ZM170.129 26.736V27.3C170.129 27.684 170.205 28.052 170.357 28.404C170.509 28.748 170.737 29.056 171.041 29.328C171.345 29.592 171.721 29.796 172.169 29.94L171.533 30.9C170.997 30.716 170.549 30.444 170.189 30.084C169.837 29.724 169.573 29.308 169.397 28.836C169.221 28.364 169.133 27.852 169.133 27.3V26.736H170.129ZM175.302 26.676V27.708H179.946V26.676H181.254V30.84H174.006V26.676H175.302ZM175.302 29.796H179.946V28.716H175.302V29.796ZM182.49 25.032V26.076H172.842V25.032H182.49ZM178.122 20.4V20.784C178.122 21.392 177.938 21.956 177.57 22.476C177.21 22.988 176.702 23.416 176.046 23.76C175.398 24.104 174.654 24.332 173.814 24.444L173.346 23.412C174.066 23.324 174.702 23.148 175.254 22.884C175.806 22.62 176.23 22.304 176.526 21.936C176.83 21.568 176.982 21.184 176.982 20.784V20.4H178.122ZM178.338 20.4V20.784C178.338 21.176 178.49 21.56 178.794 21.936C179.098 22.304 179.526 22.62 180.078 22.884C180.638 23.148 181.274 23.324 181.986 23.412L181.518 24.444C180.678 24.332 179.93 24.104 179.274 23.76C178.626 23.408 178.118 22.976 177.75 22.464C177.39 21.952 177.21 21.392 177.21 20.784V20.4H178.338ZM192.174 20.28V30.96H190.866V20.28H192.174ZM185.238 21.312V27.936H183.93V21.312H185.238ZM184.854 27.156C186.686 27.156 188.378 27 189.93 26.688L190.086 27.792C189.214 27.968 188.346 28.096 187.482 28.176C186.618 28.248 185.742 28.284 184.854 28.284H183.93V27.156H184.854ZM202.266 20.28V30.96H200.946V20.28H202.266ZM203.73 24.54V25.632H201.846V24.54H203.73ZM196.974 21.396C196.974 22.428 196.91 23.352 196.782 24.168C196.662 24.984 196.434 25.772 196.098 26.532C195.77 27.284 195.302 27.996 194.694 28.668L193.662 27.912C194.206 27.328 194.63 26.716 194.934 26.076C195.246 25.428 195.458 24.744 195.57 24.024C195.69 23.304 195.75 22.48 195.75 21.552V21.396H196.974ZM196.266 21.396V22.464H194.082V21.396H196.266ZM199.914 21.396C199.914 22.492 199.858 23.488 199.746 24.384C199.634 25.272 199.418 26.14 199.098 26.988C198.778 27.828 198.318 28.616 197.718 29.352L196.686 28.62C197.222 27.964 197.634 27.268 197.922 26.532C198.218 25.796 198.418 25.032 198.522 24.24C198.626 23.448 198.678 22.548 198.678 21.54V21.396H199.914ZM199.218 21.396V22.464H197.334V21.396H199.218ZM207.018 30.288C206.794 30.288 206.61 30.216 206.466 30.072C206.33 29.936 206.262 29.756 206.262 29.532C206.262 29.308 206.33 29.128 206.466 28.992C206.61 28.856 206.794 28.788 207.018 28.788C207.242 28.788 207.422 28.856 207.558 28.992C207.694 29.128 207.762 29.308 207.762 29.532C207.762 29.756 207.694 29.936 207.558 30.072C207.422 30.216 207.242 30.288 207.018 30.288ZM206.358 27.672C206.35 27.256 206.386 26.892 206.466 26.58C206.554 26.268 206.69 25.988 206.874 25.74C207.058 25.484 207.302 25.244 207.606 25.02C208.022 24.708 208.306 24.44 208.458 24.216C208.61 23.992 208.694 23.744 208.71 23.472C208.734 23.056 208.606 22.716 208.326 22.452C208.046 22.18 207.674 22.044 207.21 22.044C206.874 22.044 206.554 22.156 206.25 22.38C205.954 22.596 205.738 22.88 205.602 23.232L204.402 22.788C204.626 22.196 204.998 21.712 205.518 21.336C206.046 20.952 206.61 20.76 207.21 20.76C207.778 20.76 208.278 20.88 208.71 21.12C209.142 21.352 209.47 21.68 209.694 22.104C209.926 22.52 210.03 22.996 210.006 23.532C209.982 23.972 209.842 24.4 209.586 24.816C209.33 25.232 208.926 25.648 208.374 26.064C208.166 26.216 208.01 26.356 207.906 26.484C207.81 26.612 207.742 26.764 207.702 26.94C207.662 27.116 207.646 27.356 207.654 27.66L206.358 27.672Z" fill="white"/>
<defs>
<filter id="filter0_d_134_87" x="0" y="0" width="282" height="62" filterUnits="userSpaceOnUse" color-interpolation-filters="sRGB">
<feFlood flood-opacity="0" result="BackgroundImageFix"/>
<feColorMatrix in="SourceAlpha" type="matrix" values="0 0 0 0 0 0 0 0 0 0 0 0 0 0 0 0 0 0 127 0" result="hardAlpha"/>
<feMorphology radius="1" operator="erode" in="SourceAlpha" result="effect1_dropShadow_134_87"/>
<feOffset dx="3" dy="5"/>
<feGaussianBlur stdDeviation="5"/>
<feComposite in2="hardAlpha" operator="out"/>
<feColorMatrix type="matrix" values="0 0 0 0 0 0 0 0 0 0 0 0 0 0 0 0 0 0 0.19 0"/>
<feBlend mode="normal" in2="BackgroundImageFix" result="effect1_dropShadow_134_87"/>
<feBlend mode="normal" in="SourceGraphic" in2="effect1_dropShadow_134_87" result="shape"/>
</filter>
<linearGradient id="paint0_linear_134_87" x1="6" y1="26" x2="270" y2="26" gradientUnits="userSpaceOnUse">
<stop stop-color="#936DF5"/>
<stop offset="0.485577" stop-color="#8E80F8"/>
<stop offset="1" stop-color="#636EFA"/>
</linearGradient>
</defs>
</svg>
