<svg width="20" height="20" viewBox="0 0 20 20" fill="none" xmlns="http://www.w3.org/2000/svg">
<path d="M10 1.66675C5.40002 1.66675 1.66669 5.40008 1.66669 10.0001C1.66669 14.6001 5.40002 18.3334 10 18.3334H14.1667V16.6667H10C6.38335 16.6667 3.33335 13.6167 3.33335 10.0001C3.33335 6.38341 6.38335 3.33341 10 3.33341C13.6167 3.33341 16.6667 6.38341 16.6667 10.0001V11.1917C16.6667 11.8501 16.075 12.5001 15.4167 12.5001C14.7584 12.5001 14.1667 11.8501 14.1667 11.1917V10.0001C14.1667 7.70008 12.3 5.83341 10 5.83341C7.70002 5.83341 5.83335 7.70008 5.83335 10.0001C5.83335 12.3001 7.70002 14.1667 10 14.1667C11.15 14.1667 12.2 13.7001 12.95 12.9417C13.4917 13.6834 14.425 14.1667 15.4167 14.1667C17.0584 14.1667 18.3334 12.8334 18.3334 11.1917V10.0001C18.3334 5.40008 14.6 1.66675 10 1.66675ZM10 12.5001C8.61669 12.5001 7.50002 11.3834 7.50002 10.0001C7.50002 8.61675 8.61669 7.50008 10 7.50008C11.3834 7.50008 12.5 8.61675 12.5 10.0001C12.5 11.3834 11.3834 12.5001 10 12.5001Z" fill="black"/>
</svg>
