<svg width="12" height="12" viewBox="0 0 12 12" fill="none" xmlns="http://www.w3.org/2000/svg">
<path d="M4.99912 6.49998C5.21385 6.78705 5.4878 7.02457 5.8024 7.19645C6.11699 7.36833 6.46488 7.47054 6.82245 7.49615C7.18002 7.52176 7.53892 7.47017 7.8748 7.34487C8.21068 7.21958 8.51568 7.02352 8.76912 6.76998L10.2691 5.26998C10.7245 4.79848 10.9765 4.16697 10.9708 3.51148C10.9651 2.85599 10.7022 2.22896 10.2387 1.76544C9.77515 1.30192 9.14812 1.03899 8.49263 1.0333C7.83713 1.0276 7.20563 1.27959 6.73412 1.73498L5.87412 2.58998M6.99912 5.49998C6.7844 5.21292 6.51044 4.97539 6.19585 4.80351C5.88125 4.63163 5.53337 4.52942 5.1758 4.50382C4.81823 4.47821 4.45933 4.5298 4.12345 4.65509C3.78757 4.78038 3.48257 4.97645 3.22912 5.22998L1.72912 6.72998C1.27373 7.20149 1.02174 7.83299 1.02744 8.48849C1.03313 9.14398 1.29606 9.77101 1.75958 10.2345C2.2231 10.698 2.85013 10.961 3.50562 10.9667C4.16111 10.9724 4.79262 10.7204 5.26412 10.265L6.11912 9.40998" stroke="#1E1E1E" stroke-width="1.3" stroke-linecap="round" stroke-linejoin="round"/>
<path d="M4.99912 6.49998C5.21385 6.78705 5.4878 7.02457 5.8024 7.19645C6.11699 7.36833 6.46488 7.47054 6.82245 7.49615C7.18002 7.52176 7.53892 7.47017 7.8748 7.34487C8.21068 7.21958 8.51568 7.02352 8.76912 6.76998L10.2691 5.26998C10.7245 4.79848 10.9765 4.16697 10.9708 3.51148C10.9651 2.85599 10.7022 2.22896 10.2387 1.76544C9.77515 1.30192 9.14812 1.03899 8.49263 1.0333C7.83713 1.0276 7.20563 1.27959 6.73412 1.73498L5.87412 2.58998M6.99912 5.49998C6.7844 5.21292 6.51044 4.97539 6.19585 4.80351C5.88125 4.63163 5.53337 4.52942 5.1758 4.50382C4.81823 4.47821 4.45933 4.5298 4.12345 4.65509C3.78757 4.78038 3.48257 4.97645 3.22912 5.22998L1.72912 6.72998C1.27373 7.20149 1.02174 7.83299 1.02744 8.48849C1.03313 9.14398 1.29606 9.77101 1.75958 10.2345C2.2231 10.698 2.85013 10.961 3.50562 10.9667C4.16111 10.9724 4.79262 10.7204 5.26412 10.265L6.11912 9.40998" stroke="#2F3438" stroke-width="1.3" stroke-linecap="round" stroke-linejoin="round"/>
</svg>
