<svg width="62" height="62" viewBox="0 0 62 62" fill="none" xmlns="http://www.w3.org/2000/svg">
<path d="M53.5084 20.9974L52.8729 22.4595C52.7736 22.6976 52.6061 22.901 52.3914 23.0441C52.1767 23.1871 51.9245 23.2635 51.6665 23.2635C51.4085 23.2635 51.1563 23.1871 50.9416 23.0441C50.727 22.901 50.5594 22.6976 50.4601 22.4595L49.8246 20.9974C48.7072 18.4107 46.661 16.3368 44.0896 15.1849L42.1288 14.3091C41.891 14.1997 41.6894 14.0243 41.5482 13.8039C41.4069 13.5834 41.3319 13.3271 41.3319 13.0652C41.3319 12.8034 41.4069 12.547 41.5482 12.3266C41.6894 12.1061 41.891 11.9308 42.1288 11.8214L43.9811 10.9973C46.6171 9.81251 48.6984 7.66189 49.7962 4.98844L50.4498 3.41003C50.5457 3.16552 50.7132 2.95561 50.9302 2.80766C51.1473 2.6597 51.4038 2.58057 51.6665 2.58057C51.9292 2.58057 52.1858 2.6597 52.4028 2.80766C52.6198 2.95561 52.7873 3.16552 52.8833 3.41003L53.5368 4.98586C54.6334 7.65981 56.7138 9.81135 59.3493 10.9973L61.2042 11.8239C61.4413 11.9337 61.6421 12.109 61.7829 12.3292C61.9236 12.5494 61.9984 12.8052 61.9984 13.0665C61.9984 13.3278 61.9236 13.5837 61.7829 13.8039C61.6421 14.0241 61.4413 14.1994 61.2042 14.3091L59.2408 15.1823C56.6699 16.3354 54.6246 18.4102 53.5084 20.9974ZM25.8332 7.75003H36.1665V10.3334H25.8332C21.7223 10.3334 15.8233 12.278 12.9165 15.1849C10.0097 18.0917 7.74984 24.3058 7.74984 28.4167C7.74984 37.7425 15.4998 47.3813 33.5832 54.2501V46.5001H36.1665C40.2774 46.5001 45.7868 44.6297 49.0832 41.3334C51.99 38.4266 54.2498 32.5275 54.2498 28.4167H56.8332C56.8332 33.8978 54.6558 39.1545 50.78 43.0302C46.9043 46.906 41.6476 49.0834 36.1665 49.0834V58.125C23.2498 52.9584 5.1665 45.2084 5.1665 28.4167C5.1665 22.9356 7.34388 17.6789 11.2196 13.8032C15.0954 9.9274 20.352 7.75003 25.8332 7.75003Z" fill="url(#paint0_linear_251_259)"/>
<path d="M53.5084 20.9974L52.8729 22.4595C52.7736 22.6976 52.6061 22.901 52.3914 23.0441C52.1767 23.1871 51.9245 23.2635 51.6665 23.2635C51.4085 23.2635 51.1563 23.1871 50.9416 23.0441C50.727 22.901 50.5594 22.6976 50.4601 22.4595L49.8246 20.9974C48.7072 18.4107 46.661 16.3368 44.0896 15.1849L42.1288 14.3091C41.891 14.1997 41.6894 14.0243 41.5482 13.8039C41.4069 13.5834 41.3319 13.3271 41.3319 13.0652C41.3319 12.8034 41.4069 12.547 41.5482 12.3266C41.6894 12.1061 41.891 11.9308 42.1288 11.8214L43.9811 10.9973C46.6171 9.81251 48.6984 7.66189 49.7962 4.98844L50.4498 3.41003C50.5457 3.16552 50.7132 2.95561 50.9302 2.80766C51.1473 2.6597 51.4038 2.58057 51.6665 2.58057C51.9292 2.58057 52.1858 2.6597 52.4028 2.80766C52.6198 2.95561 52.7873 3.16552 52.8833 3.41003L53.5368 4.98586C54.6334 7.65981 56.7138 9.81135 59.3493 10.9973L61.2042 11.8239C61.4413 11.9337 61.6421 12.109 61.7829 12.3292C61.9236 12.5494 61.9984 12.8052 61.9984 13.0665C61.9984 13.3278 61.9236 13.5837 61.7829 13.8039C61.6421 14.0241 61.4413 14.1994 61.2042 14.3091L59.2408 15.1823C56.6699 16.3354 54.6246 18.4102 53.5084 20.9974ZM25.8332 7.75003H36.1665V10.3334H25.8332C21.7223 10.3334 15.8233 12.278 12.9165 15.1849C10.0097 18.0917 7.74984 24.3058 7.74984 28.4167C7.74984 37.7425 15.4998 47.3813 33.5832 54.2501V46.5001H36.1665C40.2774 46.5001 45.7868 44.6297 49.0832 41.3334C51.99 38.4266 54.2498 32.5275 54.2498 28.4167H56.8332C56.8332 33.8978 54.6558 39.1545 50.78 43.0302C46.9043 46.906 41.6476 49.0834 36.1665 49.0834V58.125C23.2498 52.9584 5.1665 45.2084 5.1665 28.4167C5.1665 22.9356 7.34388 17.6789 11.2196 13.8032C15.0954 9.9274 20.352 7.75003 25.8332 7.75003Z" stroke="url(#paint1_linear_251_259)"/>
<defs>
<linearGradient id="paint0_linear_251_259" x1="5.1665" y1="30.3528" x2="61.9984" y2="30.3528" gradientUnits="userSpaceOnUse">
<stop stop-color="#8C4CF6"/>
<stop offset="1" stop-color="#5947F5"/>
</linearGradient>
<linearGradient id="paint1_linear_251_259" x1="5.1665" y1="30.3528" x2="61.9984" y2="30.3528" gradientUnits="userSpaceOnUse">
<stop stop-color="#8C4CF6"/>
<stop offset="1" stop-color="#5947F5"/>
</linearGradient>
</defs>
</svg>
