<svg width="59" height="59" viewBox="0 0 59 59" fill="none" xmlns="http://www.w3.org/2000/svg">
<path d="M37.686 21.3168L29.351 29.6509M55.1561 1.95679C55.4198 1.86582 55.7037 1.85085 55.9754 1.91359C56.2472 1.97633 56.4958 2.11424 56.6928 2.31157C56.8899 2.5089 57.0275 2.75768 57.0898 3.02949C57.1522 3.30129 57.1368 3.58515 57.0454 3.84862L40.5866 50.8806C40.4881 51.1617 40.3074 51.4068 40.0679 51.584C39.8284 51.7612 39.5412 51.8623 39.2435 51.8743C38.9458 51.8863 38.6514 51.8085 38.3984 51.6511C38.1455 51.4938 37.9457 51.264 37.8249 50.9917L28.8815 30.8732C28.731 30.5387 28.4631 30.2709 28.1285 30.1204L8.00786 21.1752C7.7364 21.054 7.50752 20.8542 7.35079 20.6016C7.19406 20.349 7.11668 20.0552 7.12865 19.7582C7.14061 19.4612 7.24137 19.1746 7.41791 18.9354C7.59446 18.6963 7.83866 18.5155 8.11899 18.4166L55.1561 1.95679Z" stroke="black" stroke-width="2.5" stroke-linecap="round" stroke-linejoin="round"/>
</svg>
