<svg width="31" height="31" viewBox="0 0 31 31" fill="none" xmlns="http://www.w3.org/2000/svg">
<path d="M26.7545 10.4984L26.4367 11.2295C26.387 11.3486 26.3033 11.4503 26.1959 11.5218C26.0886 11.5933 25.9625 11.6315 25.8335 11.6315C25.7045 11.6315 25.5784 11.5933 25.4711 11.5218C25.3637 11.4503 25.2799 11.3486 25.2303 11.2295L24.9125 10.4984C24.3539 9.20512 23.3307 8.16817 22.045 7.59219L21.0647 7.15431C20.9457 7.0996 20.845 7.01193 20.7743 6.9017C20.7037 6.79146 20.6662 6.66329 20.6662 6.53237C20.6662 6.40145 20.7037 6.27328 20.7743 6.16305C20.845 6.05282 20.9457 5.96515 21.0647 5.91044L21.9908 5.49839C23.3088 4.90601 24.3494 3.8307 24.8983 2.49398L25.2251 1.70477C25.2731 1.58252 25.3568 1.47756 25.4654 1.40358C25.5739 1.32961 25.7022 1.29004 25.8335 1.29004C25.9648 1.29004 26.0931 1.32961 26.2016 1.40358C26.3102 1.47756 26.3939 1.58252 26.4419 1.70477L26.7687 2.49269C27.317 3.82966 28.3571 4.90543 29.6749 5.49839L30.6023 5.91173C30.7209 5.9666 30.8213 6.05425 30.8917 6.16434C30.962 6.27443 30.9994 6.40236 30.9994 6.53302C30.9994 6.66367 30.962 6.7916 30.8917 6.90169C30.8213 7.01179 30.7209 7.09944 30.6023 7.15431L29.6207 7.59089C28.3352 8.16745 27.3125 9.20486 26.7545 10.4984ZM12.9168 3.87477H18.0835V5.16646H12.9168C10.8614 5.16646 7.9119 6.13878 6.4585 7.59219C5.00509 9.04559 3.87516 12.1527 3.87516 14.2081C3.87516 18.871 7.75016 23.6904 16.7918 27.1248V23.2498H18.0835C20.1389 23.2498 22.8937 22.3146 24.5418 20.6665C25.9952 19.2131 27.1252 16.2635 27.1252 14.2081H28.4168C28.4168 16.9487 27.3281 19.577 25.3903 21.5149C23.4524 23.4527 20.8241 24.5414 18.0835 24.5414V29.0623C11.6252 26.4789 2.5835 22.6039 2.5835 14.2081C2.5835 11.4675 3.67218 8.83921 5.61006 6.90133C7.54794 4.96346 10.1763 3.87477 12.9168 3.87477Z" fill="#2F3438"/>
<path d="M26.7545 10.4984L26.4367 11.2295C26.387 11.3486 26.3033 11.4503 26.1959 11.5218C26.0886 11.5933 25.9625 11.6315 25.8335 11.6315C25.7045 11.6315 25.5784 11.5933 25.4711 11.5218C25.3637 11.4503 25.2799 11.3486 25.2303 11.2295L24.9125 10.4984C24.3539 9.20512 23.3307 8.16817 22.045 7.59219L21.0647 7.15431C20.9457 7.0996 20.845 7.01193 20.7743 6.9017C20.7037 6.79146 20.6662 6.66329 20.6662 6.53237C20.6662 6.40145 20.7037 6.27328 20.7743 6.16305C20.845 6.05282 20.9457 5.96515 21.0647 5.91044L21.9908 5.49839C23.3088 4.90601 24.3494 3.8307 24.8983 2.49398L25.2251 1.70477C25.2731 1.58252 25.3568 1.47756 25.4654 1.40358C25.5739 1.32961 25.7022 1.29004 25.8335 1.29004C25.9648 1.29004 26.0931 1.32961 26.2016 1.40358C26.3102 1.47756 26.3939 1.58252 26.4419 1.70477L26.7687 2.49269C27.317 3.82966 28.3571 4.90543 29.6749 5.49839L30.6023 5.91173C30.7209 5.9666 30.8213 6.05425 30.8917 6.16434C30.962 6.27443 30.9994 6.40236 30.9994 6.53302C30.9994 6.66367 30.962 6.7916 30.8917 6.90169C30.8213 7.01179 30.7209 7.09944 30.6023 7.15431L29.6207 7.59089C28.3352 8.16745 27.3125 9.20486 26.7545 10.4984ZM12.9168 3.87477H18.0835V5.16646H12.9168C10.8614 5.16646 7.9119 6.13878 6.4585 7.59219C5.00509 9.04559 3.87516 12.1527 3.87516 14.2081C3.87516 18.871 7.75016 23.6904 16.7918 27.1248V23.2498H18.0835C20.1389 23.2498 22.8937 22.3146 24.5418 20.6665C25.9952 19.2131 27.1252 16.2635 27.1252 14.2081H28.4168C28.4168 16.9487 27.3281 19.577 25.3903 21.5149C23.4524 23.4527 20.8241 24.5414 18.0835 24.5414V29.0623C11.6252 26.4789 2.5835 22.6039 2.5835 14.2081C2.5835 11.4675 3.67218 8.83921 5.61006 6.90133C7.54794 4.96346 10.1763 3.87477 12.9168 3.87477Z" stroke="#2F3438"/>
</svg>
