<svg width="24" height="18" viewBox="0 0 24 18" fill="none" xmlns="http://www.w3.org/2000/svg">
<g clip-path="url(#clip0_4_671)">
<path d="M0.5 0.686672V17.3124C0.5 17.4788 0.727241 17.5621 0.860087 17.4444L9.8175 9.51183C9.89725 9.44121 9.9001 9.32772 9.82422 9.25388L0.866597 0.560713C0.736803 0.434754 0.5 0.516245 0.5 0.686672Z" fill="url(#paint0_linear_4_671)"/>
<path d="M23.267 0.5H0.732053C0.544685 0.5 0.434421 0.686725 0.54143 0.822945L8.38238 10.8099C8.47514 10.928 8.61796 10.9972 8.76911 10.9972H15.5288C15.6832 10.9972 15.8286 10.9252 15.9212 10.8027L23.4601 0.819927C23.5632 0.683304 23.4527 0.5 23.267 0.5Z" fill="url(#paint1_linear_4_671)"/>
<path d="M21.5052 16.8895C22.6069 16.8895 23.5001 16.0061 23.5001 14.9164C23.5001 13.8267 22.6069 12.9434 21.5052 12.9434C20.4034 12.9434 19.5103 13.8267 19.5103 14.9164C19.5103 16.0061 20.4034 16.8895 21.5052 16.8895Z" fill="url(#paint2_linear_4_671)"/>
<path d="M23.267 0.5H0.732053C0.544685 0.5 0.434421 0.686725 0.54143 0.822945L8.38238 10.8099C8.47514 10.928 8.61796 10.9972 8.76911 10.9972H15.5288C15.6832 10.9972 15.8286 10.9252 15.9212 10.8027L23.4601 0.819927C23.5632 0.683304 23.4527 0.5 23.267 0.5Z" fill="url(#paint3_linear_4_671)"/>
</g>
<defs>
<linearGradient id="paint0_linear_4_671" x1="-1.92194" y1="11.2135" x2="5.15712" y2="5.12717" gradientUnits="userSpaceOnUse">
<stop stop-color="#AFD7F0"/>
<stop offset="1" stop-color="#89A0CF"/>
</linearGradient>
<linearGradient id="paint1_linear_4_671" x1="0.499522" y1="5.74861" x2="23.4995" y2="5.74861" gradientUnits="userSpaceOnUse">
<stop stop-color="#90BDE5"/>
<stop offset="1" stop-color="#BFBCDD"/>
</linearGradient>
<linearGradient id="paint2_linear_4_671" x1="20.5215" y1="15.7436" x2="22.7949" y2="13.7891" gradientUnits="userSpaceOnUse">
<stop stop-color="#AFD7F0"/>
<stop offset="1" stop-color="#89A0CF"/>
</linearGradient>
<linearGradient id="paint3_linear_4_671" x1="0.499522" y1="5.74861" x2="23.4995" y2="5.74861" gradientUnits="userSpaceOnUse">
<stop stop-color="#90BDE5"/>
<stop offset="1" stop-color="#BFBCDD"/>
</linearGradient>
<clipPath id="clip0_4_671">
<rect width="23" height="17" fill="white" transform="translate(0.5 0.5)"/>
</clipPath>
</defs>
</svg>
