<svg width="20" height="20" viewBox="0 0 20 20" fill="none" xmlns="http://www.w3.org/2000/svg">
<path d="M15.8333 3.33341H12.35C12 2.36675 11.0833 1.66675 10 1.66675C8.91667 1.66675 8 2.36675 7.65 3.33341H4.16667C3.25 3.33341 2.5 4.08341 2.5 5.00008V16.6667C2.5 17.5834 3.25 18.3334 4.16667 18.3334H15.8333C16.75 18.3334 17.5 17.5834 17.5 16.6667V5.00008C17.5 4.08341 16.75 3.33341 15.8333 3.33341ZM10 3.33341C10.4583 3.33341 10.8333 3.70841 10.8333 4.16675C10.8333 4.62508 10.4583 5.00008 10 5.00008C9.54167 5.00008 9.16667 4.62508 9.16667 4.16675C9.16667 3.70841 9.54167 3.33341 10 3.33341ZM10 6.66675C11.3833 6.66675 12.5 7.78342 12.5 9.16675C12.5 10.5501 11.3833 11.6667 10 11.6667C8.61667 11.6667 7.5 10.5501 7.5 9.16675C7.5 7.78342 8.61667 6.66675 10 6.66675ZM15 16.6667H5V15.5001C5 13.8334 8.33333 12.9167 10 12.9167C11.6667 12.9167 15 13.8334 15 15.5001V16.6667Z" fill="currentColor"/>
</svg>
