<svg width="325" height="98" viewBox="0 0 325 98" fill="none" xmlns="http://www.w3.org/2000/svg">
<path d="M142.266 70.6543H138.047V68.6328H142.266V70.6543ZM143.438 77.0215H140.957V64.043H143.438V77.0215ZM143.867 81.4941H131.641V79.4824H143.867V81.4941ZM134.141 80.6543H131.641V75.8789H134.141V80.6543ZM134.658 67.4902C134.658 68.6361 134.473 69.7103 134.102 70.7129C133.737 71.7155 133.177 72.5944 132.422 73.3496C131.673 74.0983 130.749 74.6582 129.648 75.0293L128.359 73.0176C129.297 72.7181 130.085 72.2819 130.723 71.709C131.367 71.1296 131.846 70.4818 132.158 69.7656C132.471 69.043 132.627 68.2845 132.627 67.4902V66.3379H134.658V67.4902ZM135.166 67.5098C135.166 68.2324 135.316 68.9323 135.615 69.6094C135.915 70.2799 136.367 70.8887 136.973 71.4355C137.585 71.9824 138.346 72.4023 139.258 72.6953L138.027 74.668C136.953 74.3164 136.048 73.7793 135.312 73.0566C134.583 72.334 134.04 71.4974 133.682 70.5469C133.324 69.5964 133.145 68.584 133.145 67.5098V66.3379H135.166V67.5098ZM138.711 67.2363H129.062V65.2344H138.711V67.2363ZM155.059 73.5156H152.588V70.3125H155.059V73.5156ZM154.668 64.9023C154.668 65.9961 154.378 66.9922 153.799 67.8906C153.226 68.7826 152.396 69.5312 151.309 70.1367C150.228 70.7422 148.949 71.1556 147.471 71.377L146.572 69.4238C147.848 69.2676 148.936 68.9616 149.834 68.5059C150.739 68.0436 151.416 67.5 151.865 66.875C152.321 66.2435 152.549 65.5859 152.549 64.9023V64.3164H154.668V64.9023ZM155.088 64.9023C155.088 65.6185 155.312 66.2891 155.762 66.9141C156.217 67.5326 156.898 68.0664 157.803 68.5156C158.708 68.9648 159.805 69.2676 161.094 69.4238L160.127 71.377C158.643 71.1556 157.36 70.7454 156.279 70.1465C155.205 69.5475 154.382 68.7988 153.809 67.9004C153.242 67.002 152.959 66.0026 152.959 64.9023V64.3164H155.088V64.9023ZM161.963 74.4922H145.752V72.5098H161.963V74.4922ZM153.828 75.4688C155.124 75.4688 156.234 75.5957 157.158 75.8496C158.083 76.097 158.789 76.4583 159.277 76.9336C159.772 77.4089 160.02 77.9785 160.02 78.6426C160.02 79.3132 159.772 79.8828 159.277 80.3516C158.789 80.8268 158.083 81.1849 157.158 81.4258C156.234 81.6732 155.124 81.7969 153.828 81.7969C152.533 81.7969 151.419 81.6732 150.488 81.4258C149.557 81.1849 148.841 80.8268 148.34 80.3516C147.845 79.8828 147.598 79.3132 147.598 78.6426C147.598 77.9785 147.845 77.4089 148.34 76.9336C148.841 76.4583 149.557 76.097 150.488 75.8496C151.419 75.5957 152.533 75.4688 153.828 75.4688ZM153.828 77.373C152.988 77.373 152.295 77.4186 151.748 77.5098C151.208 77.6009 150.804 77.7409 150.537 77.9297C150.27 78.112 150.137 78.3496 150.137 78.6426C150.137 78.929 150.27 79.1699 150.537 79.3652C150.804 79.5605 151.211 79.707 151.758 79.8047C152.311 79.8958 153.001 79.9414 153.828 79.9414C154.648 79.9414 155.329 79.8958 155.869 79.8047C156.416 79.707 156.826 79.5605 157.1 79.3652C157.373 79.1699 157.51 78.929 157.51 78.6426C157.51 78.3561 157.373 78.1185 157.1 77.9297C156.826 77.7409 156.419 77.6009 155.879 77.5098C155.339 77.4186 154.655 77.373 153.828 77.373ZM169.658 73.9355H167.158V71.2207H169.658V73.9355ZM168.379 64.7559C169.238 64.7559 170.007 64.9056 170.684 65.2051C171.361 65.5046 171.891 65.9277 172.275 66.4746C172.666 67.0215 172.861 67.653 172.861 68.3691C172.861 69.0527 172.666 69.668 172.275 70.2148C171.891 70.7617 171.361 71.1914 170.684 71.5039C170.007 71.8099 169.238 71.9629 168.379 71.9629C167.52 71.9629 166.748 71.8099 166.064 71.5039C165.381 71.1914 164.85 70.7617 164.473 70.2148C164.102 69.668 163.916 69.0527 163.916 68.3691C163.916 67.6595 164.102 67.0312 164.473 66.4844C164.85 65.931 165.381 65.5046 166.064 65.2051C166.748 64.9056 167.52 64.7559 168.379 64.7559ZM168.379 66.6309C167.956 66.6309 167.581 66.6992 167.256 66.8359C166.93 66.9727 166.676 67.1712 166.494 67.4316C166.318 67.6921 166.23 68.0046 166.23 68.3691C166.23 68.7142 166.318 69.0137 166.494 69.2676C166.676 69.5215 166.93 69.7201 167.256 69.8633C167.588 70 167.962 70.0684 168.379 70.0684C168.802 70.0684 169.173 70 169.492 69.8633C169.818 69.7201 170.068 69.5215 170.244 69.2676C170.426 69.0137 170.518 68.7142 170.518 68.3691C170.518 67.998 170.43 67.6823 170.254 67.4219C170.078 67.1615 169.827 66.9661 169.502 66.8359C169.176 66.6992 168.802 66.6309 168.379 66.6309ZM177.246 77.5977H174.736V64.043H177.246V77.5977ZM179.521 71.6992H176.357V69.6289H179.521V71.6992ZM177.852 81.4648H165.322V79.4629H177.852V81.4648ZM167.842 80.3516H165.322V76.416H167.842V80.3516ZM162.969 73.3008C164.922 73.3073 166.81 73.2715 168.633 73.1934C170.462 73.1152 172.168 72.9622 173.75 72.7344L173.936 74.541C172.314 74.834 170.615 75.0293 168.838 75.127C167.067 75.2246 165.202 75.2734 163.242 75.2734L162.969 73.3008ZM186.904 78.5938H184.473V74.375H186.904V78.5938ZM192.598 78.584H190.156V74.3555H192.598V78.584ZM196.572 79.8242H180.322V77.7832H196.572V79.8242ZM194.697 71.0645H184.678V74.1016H182.197V69.082H192.236V67.1777H182.168V65.1758H194.697V71.0645ZM195.117 75.0586H182.197V73.0371H195.117V75.0586Z" fill="black"/>
<g filter="url(#filter0_d_503_353)">
<circle cx="162" cy="25" r="22" fill="#33F839"/>
</g>
<path d="M151.961 24.1747L160.03 34.597L173 16.9973" stroke="white" stroke-width="5" stroke-linecap="round" stroke-linejoin="round"/>
<defs>
<filter id="filter0_d_503_353" x="135.4" y="0.4" width="55.2" height="55.2" filterUnits="userSpaceOnUse" color-interpolation-filters="sRGB">
<feFlood flood-opacity="0" result="BackgroundImageFix"/>
<feColorMatrix in="SourceAlpha" type="matrix" values="0 0 0 0 0 0 0 0 0 0 0 0 0 0 0 0 0 0 127 0" result="hardAlpha"/>
<feOffset dx="1" dy="3"/>
<feGaussianBlur stdDeviation="2.8"/>
<feComposite in2="hardAlpha" operator="out"/>
<feColorMatrix type="matrix" values="0 0 0 0 0 0 0 0 0 0 0 0 0 0 0 0 0 0 0.25 0"/>
<feBlend mode="normal" in2="BackgroundImageFix" result="effect1_dropShadow_503_353"/>
<feBlend mode="normal" in="SourceGraphic" in2="effect1_dropShadow_503_353" result="shape"/>
</filter>
</defs>
</svg>
