<svg width="201" height="60" viewBox="0 0 201 60" fill="none" xmlns="http://www.w3.org/2000/svg">
<rect x="2" y="2" width="197" height="56" rx="14" fill="white" stroke="url(#paint0_linear_403_93)" stroke-width="4"/>
<path d="M75.9625 32.66C76.3892 33.4467 76.9225 34.0867 77.5625 34.58C78.2025 35.06 78.9025 35.3 79.6625 35.3C80.7158 35.3133 81.5692 35.0467 82.2225 34.5C82.8892 33.9533 83.2225 33.2267 83.2225 32.32C83.2225 31.7333 83.0692 31.2467 82.7625 30.86C82.4692 30.46 82.0958 30.1467 81.6425 29.92C81.1892 29.68 80.5825 29.42 79.8225 29.14C78.9425 28.8067 78.2358 28.4933 77.7025 28.2C77.1692 27.9067 76.7158 27.5 76.3425 26.98C75.9692 26.4467 75.7825 25.7667 75.7825 24.94C75.7825 24.2333 75.9625 23.6133 76.3225 23.08C76.6958 22.5467 77.2025 22.1333 77.8425 21.84C78.4825 21.5467 79.1892 21.4 79.9625 21.4C80.5492 21.4 81.1092 21.52 81.6425 21.76C82.1892 22 82.6558 22.3333 83.0425 22.76C83.4425 23.1867 83.7425 23.6933 83.9425 24.28L83.0425 24.6C82.8292 23.9067 82.4358 23.3467 81.8625 22.92C81.2892 22.48 80.6558 22.26 79.9625 22.26C79.3492 22.2467 78.7958 22.3533 78.3025 22.58C77.8225 22.8067 77.4425 23.1267 77.1625 23.54C76.8825 23.94 76.7425 24.4067 76.7425 24.94C76.7425 25.6067 76.9025 26.1533 77.2225 26.58C77.5425 26.9933 77.9358 27.3267 78.4025 27.58C78.8692 27.82 79.5025 28.0867 80.3025 28.38C81.1558 28.7 81.8358 29 82.3425 29.28C82.8625 29.5467 83.2958 29.9333 83.6425 30.44C84.0025 30.9333 84.1825 31.56 84.1825 32.32C84.1825 33.08 83.9892 33.7533 83.6025 34.34C83.2158 34.9133 82.6758 35.36 81.9825 35.68C81.3025 36 80.5292 36.16 79.6625 36.16C78.7425 36.16 77.8892 35.8867 77.1025 35.34C76.3292 34.7933 75.6758 34.0533 75.1425 33.12L75.9625 32.66ZM88.038 23.74H88.998V36H88.038V23.74ZM86.258 26.78H91.278V27.64H86.258V26.78ZM96.7755 36.1C95.9488 36.1 95.2155 35.9067 94.5755 35.52C93.9355 35.12 93.4288 34.5667 93.0555 33.86C92.6955 33.1533 92.5155 32.3533 92.5155 31.46C92.5155 30.5667 92.6955 29.7667 93.0555 29.06C93.4288 28.34 93.9355 27.7867 94.5755 27.4C95.2155 27 95.9488 26.8 96.7755 26.8C97.5221 26.8 98.1955 27.0067 98.7955 27.42C99.4088 27.8333 99.8755 28.3933 100.195 29.1L100.095 29.12V26.78H101.055V36H100.095V33.76L100.195 33.8C100.009 34.2 99.7488 34.58 99.4155 34.94C99.0821 35.2867 98.6821 35.5667 98.2155 35.78C97.7621 35.9933 97.2821 36.1 96.7755 36.1ZM96.7755 35.22C97.3621 35.22 97.9088 35.06 98.4155 34.74C98.9221 34.42 99.3288 33.9733 99.6355 33.4C99.9421 32.8133 100.095 32.1667 100.095 31.46C100.095 30.7533 99.9421 30.1067 99.6355 29.52C99.3288 28.9333 98.9221 28.48 98.4155 28.16C97.9088 27.84 97.3621 27.68 96.7755 27.68C96.1488 27.68 95.5821 27.84 95.0755 28.16C94.5821 28.48 94.1955 28.9267 93.9155 29.5C93.6355 30.0733 93.4955 30.7267 93.4955 31.46C93.4955 32.18 93.6355 32.8333 93.9155 33.42C94.1955 33.9933 94.5821 34.44 95.0755 34.76C95.5821 35.0667 96.1488 35.22 96.7755 35.22ZM104.3 28.98C104.5 28.54 104.773 28.1467 105.12 27.8C105.48 27.4533 105.88 27.1867 106.32 27C106.773 26.8133 107.227 26.72 107.68 26.72V27.64C107.12 27.64 106.587 27.8067 106.08 28.14C105.573 28.4733 105.167 28.92 104.86 29.48C104.553 30.0267 104.4 30.6133 104.4 31.24V36H103.44V26.78H104.4V29L104.3 28.98ZM111.163 23.74H112.123V36H111.163V23.74ZM109.383 26.78H114.403V27.64H109.383V26.78ZM127.926 30.36C127.926 29.52 127.699 28.86 127.246 28.38C126.806 27.9 126.213 27.66 125.466 27.66C124.919 27.66 124.426 27.78 123.986 28.02C123.546 28.2467 123.206 28.5533 122.966 28.94C122.726 29.3267 122.606 29.7467 122.606 30.2V36H121.626V26.78H122.606V28.4L122.506 28.38C122.706 27.9133 123.079 27.5333 123.626 27.24C124.186 26.9333 124.799 26.78 125.466 26.78C126.133 26.78 126.726 26.9267 127.246 27.22C127.766 27.5133 128.173 27.9133 128.466 28.42C128.759 28.9267 128.906 29.5067 128.906 30.16V36H127.926V30.36ZM135.567 35.22C136.234 35.22 136.827 35.06 137.347 34.74C137.867 34.4067 138.274 33.9533 138.567 33.38C138.86 32.8067 139.007 32.1533 139.007 31.42C139.007 30.6867 138.86 30.0333 138.567 29.46C138.274 28.8867 137.867 28.44 137.347 28.12C136.827 27.7867 136.234 27.62 135.567 27.62C134.914 27.62 134.327 27.7867 133.807 28.12C133.3 28.44 132.9 28.8867 132.607 29.46C132.327 30.0333 132.187 30.6867 132.187 31.42C132.187 32.1533 132.327 32.8067 132.607 33.38C132.9 33.9533 133.3 34.4067 133.807 34.74C134.327 35.06 134.914 35.22 135.567 35.22ZM135.567 26.76C136.42 26.76 137.18 26.96 137.847 27.36C138.514 27.76 139.034 28.3133 139.407 29.02C139.78 29.7267 139.967 30.5267 139.967 31.42C139.967 32.3133 139.78 33.1133 139.407 33.82C139.034 34.5267 138.514 35.08 137.847 35.48C137.18 35.88 136.42 36.08 135.567 36.08C134.727 36.08 133.974 35.88 133.307 35.48C132.654 35.08 132.14 34.5267 131.767 33.82C131.394 33.1133 131.207 32.3133 131.207 31.42C131.207 30.5267 131.394 29.7267 131.767 29.02C132.14 28.3133 132.654 27.76 133.307 27.36C133.974 26.96 134.727 26.76 135.567 26.76ZM150.209 36H149.289L146.929 28.22H147.029L144.709 36H143.809L141.009 26.78H142.009L144.309 34.54H144.209L146.469 26.78H147.469L149.789 34.54H149.689L151.929 26.78H152.949L150.209 36Z" fill="black"/>
<path d="M56.2763 36.52C55.6239 36.52 54.9993 36.4264 54.4025 36.2392C53.8056 36.052 53.2559 35.7809 52.7533 35.426C53.4935 34.724 54.0648 33.9064 54.4673 32.9733C54.8705 32.0394 55.0721 31.0617 55.0721 30.04C55.0721 29.0183 54.8705 28.0406 54.4673 27.1067C54.0641 26.1729 53.4931 25.3557 52.7544 24.6551C53.2555 24.2987 53.8049 24.0269 54.4025 23.8397C55.0001 23.6532 55.6247 23.56 56.2763 23.56C58.0777 23.56 59.6081 24.1896 60.8673 25.4489C62.1266 26.7082 62.7563 28.2386 62.7563 30.04C62.7563 31.8414 62.1266 33.3718 60.8673 34.6311C59.6081 35.8904 58.0777 36.52 56.2763 36.52ZM47.6363 36.52C45.8348 36.52 44.3045 35.8904 43.0452 34.6311C41.7859 33.3718 41.1562 31.8414 41.1562 30.04C41.1562 28.2386 41.7859 26.7082 43.0452 25.4489C44.3045 24.1896 45.8348 23.56 47.6363 23.56C48.2886 23.56 48.9135 23.6536 49.5111 23.8408C50.1087 24.028 50.6577 24.2994 51.1581 24.6551C51.0185 24.7826 50.8863 24.9183 50.7618 25.0623L50.3903 25.4954C50.0022 25.2246 49.5752 25.0144 49.1094 24.8646C48.6435 24.7149 48.1525 24.64 47.6363 24.64C46.1423 24.64 44.8689 25.1667 43.8163 26.22C42.7636 27.2734 42.237 28.5467 42.2363 30.04C42.2355 31.5333 42.7622 32.807 43.8163 33.861C44.8704 34.9151 46.1437 35.4414 47.6363 35.44C48.1525 35.44 48.6439 35.3651 49.1105 35.2154C49.5756 35.0656 50.0022 34.8554 50.3903 34.5846L50.7618 35.0166C50.8863 35.1621 51.0185 35.2985 51.1581 35.426C50.6577 35.7816 50.1087 36.0531 49.5111 36.2403C48.9135 36.4268 48.2886 36.52 47.6363 36.52ZM51.9563 34.8374C51.2766 34.2326 50.7467 33.5126 50.3665 32.6774C49.9863 31.8422 49.7963 30.963 49.7963 30.04C49.7963 29.117 49.9863 28.2378 50.3665 27.4026C50.7467 26.5674 51.2766 25.8474 51.9563 25.2426C52.6359 25.8474 53.1659 26.5674 53.546 27.4026C53.9262 28.2378 54.1163 29.117 54.1163 30.04C54.1163 30.963 53.9262 31.8422 53.546 32.6774C53.1659 33.5126 52.6359 34.2326 51.9563 34.8374Z" fill="black"/>
<defs>
<linearGradient id="paint0_linear_403_93" x1="0" y1="30" x2="201" y2="30" gradientUnits="userSpaceOnUse">
<stop stop-color="#BFBDE6"/>
<stop offset="1" stop-color="#B4CCF4"/>
</linearGradient>
</defs>
</svg>
